<svg id="Layer_1" data-name="Layer 1" xmlns="http://www.w3.org/2000/svg" xmlns:xlink="http://www.w3.org/1999/xlink" viewBox="0 0 520.37227 314.3371"><defs><style>.cls-1{fill:#282828;}.cls-2{fill:#fbcc0a;}.cls-3{fill:#fcb017;}.cls-4{fill:#f7901e;}.cls-5{fill:#f17623;}.cls-6{fill:#ec4b25;}.cls-7{fill:#d71f27;}.cls-8{fill:#ed2024;}.cls-9{fill:#e38649;}.cls-10{fill:none;stroke:#231f20;stroke-miterlimit:10;stroke-width:0.31167px;}.cls-11{fill:url(#linear-gradient);}.cls-12{fill:url(#linear-gradient-2);}.cls-13{fill:#fff;}</style><linearGradient id="linear-gradient" x1="-4.46019" y1="288.50727" x2="501.6469" y2="288.50727" gradientUnits="userSpaceOnUse"><stop offset="0" stop-color="#ed2024"/><stop offset="1" stop-color="#f48521"/></linearGradient><linearGradient id="linear-gradient-2" x1="-4.46019" y1="291.94025" x2="501.6469" y2="291.94025" xlink:href="#linear-gradient"/></defs><rect class="cls-1" x="-239.81387" y="-342.83145" width="1000" height="1000"/><path class="cls-2" d="M519.0637,182.83749a165.45177,165.45177,0,0,1-3.21793,17.53054c-.64949-.32324-1.32845-.64648-1.99272-.955q-8.32532-3.8794-16.65063-7.74408a18.3437,18.3437,0,0,1-5.57967-3.46772c-1.4171-1.45511-2.50941-3.48279-4.47267-3.99724-2.0075-.5141-4.00022.76414-6.052.99949-4.31032.485-9.28483-4.36461-11.60225-7.58264a9.37431,9.37431,0,0,1-1.19574-2.98268,56.01426,56.01426,0,0,0-4.62016-11.2857,6.34268,6.34268,0,0,0-1.2252-1.74857,6.90359,6.90359,0,0,0-2.43563-1.21977c-2.15507-.74944-4.325-1.48417-6.48017-2.23361a2.64538,2.64538,0,0,0-1.19565-2.733,15.66714,15.66714,0,0,0-2.87835-1.3812,34.88585,34.88585,0,0,1-5.07784-3.48279l74.49952-10.1097A161.61066,161.61066,0,0,1,519.0637,182.83749Z"/><path class="cls-3" d="M518.88657,140.44383l-74.49952,10.1097c-.20668-.16144-.41336-.29382-.62-.44091a51.34982,51.34982,0,0,0-6.59819-3.3357c-5.16641-2.45388-12.82745-6.15694-14.68737-11.82921-.57571-1.71915-1.81559-3.62916-3.6165-3.453-.30993-4.61394,2.62753-9.625.29524-13.6219a9.10809,9.10809,0,0,0-1.63847-1.96921l68.6984-52.95934A162.08115,162.08115,0,0,1,507.6829,99.534,158.47891,158.47891,0,0,1,518.88657,140.44383Z"/><path class="cls-4" d="M486.22012,62.94424l-68.6984,52.95934c-.33948-.35265-.70851-.6906-1.04807-1.02855-3.026-2.99775-4.62025-6.56843-6.49486-10.30092a107.2416,107.2416,0,0,0-9.12238-14.92957c-2.34707-3.21838-5.09262-5.05521-6.70163-8.77262-.60517-1.41062-1.1661-2.83631-1.668-4.2907l26.4963-64.50945A161.1294,161.1294,0,0,1,455.97452,33.0851,163.57528,163.57528,0,0,1,486.22012,62.94424Z"/><path class="cls-5" d="M418.98306,12.07177l-26.4963,64.50945c-.28046-.823-.56093-1.66068-.81184-2.48366l-1.80082-3.453a12.04287,12.04287,0,0,1-2.0666,1.04325c-.39858.02942-2.967-.38207-2.967-.38207s-3.98554-.33795-4.62025-.2644a18.51154,18.51154,0,0,0-3.0408,1.45439s-.85617,1.20506-2.78988,3.58575a4.72327,4.72327,0,0,1-4.33978,1.91037l-1.47612,3.05623a45.246,45.246,0,0,0-5.18109-2.51272c-.75283-.08825-4.42835-4.09984-4.42835-4.09984l-2.86367-1.82212a23.04674,23.04674,0,0,0-4.41366,1.29331c-1.32845.67589-3.76408,6.37722-3.76408,6.37722l-.87085,2.65981s-.251.2644-.57571.63176L335.243,1.477a164.50434,164.50434,0,0,1,83.74,10.59474Z"/><path class="cls-6" d="M346.47626,83.57549a14.64514,14.64514,0,0,0-1.25466,1.5283,18.78117,18.78117,0,0,0-1.55,5.06992c-.97419,4.76067-4.36924,8.69908-5.47633,13.51859-.3838-.235-.78238-.47-1.18087-.70532.14757,3.71814-3.07035,6.657-4.38411,10.13948a40.4008,40.4008,0,0,0-1.19565,4.996,21.21933,21.21933,0,0,1-3.14414,6.99464L257.40739,33.996a163.05609,163.05609,0,0,1,36.75532-21.36563A160.80992,160.80992,0,0,1,335.243,1.477Z"/><path class="cls-7" d="M291.01858,135.38862v.01471a12.92176,12.92176,0,0,1-1.91893,3.07129c-.79707.6759-2.42086,4.05572-2.42086,4.05572-4.66448,2.57156-5.88968,4.30542-9.31428,8.00848-2.92268,3.1739-7.21823,4.83458-10.80518,7.08289-6.02258,3.80567-10.58373,9.49265-16.16349,13.93044-8.08908,6.43606-17.94953,9.93355-27.63284,13.22513-8.04485,2.71864-17.58059,4.59923-25.2711,8.25852a157.88518,157.88518,0,0,1,8.81237-92.12062Z"/><path class="cls-8" d="M328.2905,125.11712a22.882,22.882,0,0,1-1.7418,2.20418c-.70851.77886-6.22926,6.11318-7.27724,5.53989-1.04808-.57293-2.08138-1.14622-3.12936-1.71915-2.31751,1.7927-5.71256,1.6309-8.0744,3.37983a11.91224,11.91224,0,0,0-3.0408,4.07007c-.30992.55858-.61994,1.32272-.95942,2.11629-3.02611-1.23448-6.03735-2.46859-9.0486-3.67365,0-.01471,0-.01471-.01477-.01471-1.32854-1.2786-3.32126-2.96833-3.54272-2.51271,0,.01471-.17712.36736-.44281.88146v.01471l-84.71431-34.48815a158.09934,158.09934,0,0,1,21.12321-36.81,162.208,162.208,0,0,1,29.97991-30.1239V33.996Z"/><path class="cls-8" d="M304.06748,140.72294c-1.00375,2.33621-2.288,4.92283-4.53168,3.24744-1.668-1.24918-2.34707-3.909-3.32127-5.67191a10.0938,10.0938,0,0,0-1.19565-1.24918C298.03013,138.254,301.04137,139.48846,304.06748,140.72294Z"/><rect class="cls-9" x="450.1115" y="152.33819" width="0.02486" height="0.02498" transform="translate(278.07002 595.31765) rotate(-87.47231)"/><line class="cls-10" x1="450.13588" y1="152.36353" x2="450.11095" y2="152.36244"/><line class="cls-10" x1="450.13479" y1="152.38834" x2="450.13588" y2="152.36353"/><line class="cls-10" x1="450.13479" y1="152.38834" x2="450.13588" y2="152.36353"/><line class="cls-10" x1="450.13479" y1="152.38834" x2="450.13588" y2="152.36353"/><line class="cls-10" x1="450.13588" y1="152.36353" x2="450.11095" y2="152.36244"/><path class="cls-11" d="M45.34248,288.40576c-.48638,3.1417-2.18172,3.59065-4.70007,3.66537l-6.45795.16208c-.89759.03743-1.147-.2368-.99727-.99742l.82271-5.32342a1.18254,1.18254,0,0,1,1.34653-1.13438h5.63509C43.92107,284.778,45.82855,285.22678,45.34248,288.40576Z"/><path class="cls-12" d="M85.41115,292.8316,82.85536,285.501c-.21184-.62335-.561-.723-1.284-.723h-.34911a1.46188,1.46188,0,0,0-1.48365.723L74.727,292.8316c-.27439.47375-.16207.92254.48623.92254h9.43742C85.33643,293.75414,85.61066,293.30535,85.41115,292.8316Zm0,0L82.85536,285.501c-.21184-.62335-.561-.723-1.284-.723h-.34911a1.46188,1.46188,0,0,0-1.48365.723L74.727,292.8316c-.27439.47375-.16207.92254.48623.92254h9.43742C85.33643,293.75414,85.61066,293.30535,85.41115,292.8316Zm0,0L82.85536,285.501c-.21184-.62335-.561-.723-1.284-.723h-.34911a1.46188,1.46188,0,0,0-1.48365.723L74.727,292.8316c-.27439.47375-.16207.92254.48623.92254h9.43742C85.33643,293.75414,85.61066,293.30535,85.41115,292.8316Zm44.931-8.05361H124.545c-.87262,0-1.20926.31167-1.34637.99742l-.76062,4.91191c-.07472.68574.16223.86014,1.03485.86014,1.99484-.03743,4.00185-.07472,6.00916-.137,2.76763-.07488,4.66263-.31168,5.11127-3.31641C135.04219,285.22678,133.34655,284.778,130.34212,284.778Zm48.80818,8.05361-2.55579-7.33058c-.212-.62335-.561-.723-1.284-.723h-.33664a1.47013,1.47013,0,0,0-1.49612.723l-4.99911,7.33058c-.28687.47375-.17471.92254.4736.92254h9.43757C179.07557,293.75414,179.34981,293.30535,179.1503,292.8316Zm0,0-2.55579-7.33058c-.212-.62335-.561-.723-1.284-.723h-.33664a1.47013,1.47013,0,0,0-1.49612.723l-4.99911,7.33058c-.28687.47375-.17471.92254.4736.92254h9.43757C179.07557,293.75414,179.34981,293.30535,179.1503,292.8316ZM130.34212,284.778H124.545c-.87262,0-1.20926.31167-1.34637.99742l-.76062,4.91191c-.07472.68574.16223.86014,1.03485.86014,1.99484-.03743,4.00185-.07472,6.00916-.137,2.76763-.07488,4.66263-.31168,5.11127-3.31641C135.04219,285.22678,133.34655,284.778,130.34212,284.778Zm-44.931,8.05361L82.85536,285.501c-.21184-.62335-.561-.723-1.284-.723h-.34911a1.46188,1.46188,0,0,0-1.48365.723L74.727,292.8316c-.27439.47375-.16207.92254.48623.92254h9.43742C85.33643,293.75414,85.61066,293.30535,85.41115,292.8316Zm0,0L82.85536,285.501c-.21184-.62335-.561-.723-1.284-.723h-.34911a1.46188,1.46188,0,0,0-1.48365.723L74.727,292.8316c-.27439.47375-.16207.92254.48623.92254h9.43742C85.33643,293.75414,85.61066,293.30535,85.41115,292.8316Zm44.931-8.05361H124.545c-.87262,0-1.20926.31167-1.34637.99742l-.76062,4.91191c-.07472.68574.16223.86014,1.03485.86014,1.99484-.03743,4.00185-.07472,6.00916-.137,2.76763-.07488,4.66263-.31168,5.11127-3.31641C135.04219,285.22678,133.34655,284.778,130.34212,284.778Zm48.80818,8.05361-2.55579-7.33058c-.212-.62335-.561-.723-1.284-.723h-.33664a1.47013,1.47013,0,0,0-1.49612.723l-4.99911,7.33058c-.28687.47375-.17471.92254.4736.92254h9.43757C179.07557,293.75414,179.34981,293.30535,179.1503,292.8316Zm0,0-2.55579-7.33058c-.212-.62335-.561-.723-1.284-.723h-.33664a1.47013,1.47013,0,0,0-1.49612.723l-4.99911,7.33058c-.28687.47375-.17471.92254.4736.92254h9.43757C179.07557,293.75414,179.34981,293.30535,179.1503,292.8316ZM130.34212,284.778H124.545c-.87262,0-1.20926.31167-1.34637.99742l-.76062,4.91191c-.07472.68574.16223.86014,1.03485.86014,1.99484-.03743,4.00185-.07472,6.00916-.137,2.76763-.07488,4.66263-.31168,5.11127-3.31641C135.04219,285.22678,133.34655,284.778,130.34212,284.778Zm-44.931,8.05361L82.85536,285.501c-.21184-.62335-.561-.723-1.284-.723h-.34911a1.46188,1.46188,0,0,0-1.48365.723L74.727,292.8316c-.27439.47375-.16207.92254.48623.92254h9.43742C85.33643,293.75414,85.61066,293.30535,85.41115,292.8316Zm0,0L82.85536,285.501c-.21184-.62335-.561-.723-1.284-.723h-.34911a1.46188,1.46188,0,0,0-1.48365.723L74.727,292.8316c-.27439.47375-.16207.92254.48623.92254h9.43742C85.33643,293.75414,85.61066,293.30535,85.41115,292.8316Zm44.931-8.05361H124.545c-.87262,0-1.20926.31167-1.34637.99742l-.76062,4.91191c-.07472.68574.16223.86014,1.03485.86014,1.99484-.03743,4.00185-.07472,6.00916-.137,2.76763-.07488,4.66263-.31168,5.11127-3.31641C135.04219,285.22678,133.34655,284.778,130.34212,284.778Zm48.80818,8.05361-2.55579-7.33058c-.212-.62335-.561-.723-1.284-.723h-.33664a1.47013,1.47013,0,0,0-1.49612.723l-4.99911,7.33058c-.28687.47375-.17471.92254.4736.92254h9.43757C179.07557,293.75414,179.34981,293.30535,179.1503,292.8316ZM337.68019,284.778h-4.83734a1.18865,1.18865,0,0,0-1.34637,1.13438L329.60163,297.968c-.13727.76046.137,1.147.99726,1.147h4.83719c5.32341,0,8.32784-.97246,9.3003-7.21842C345.7338,285.67557,343.00361,284.778,337.68019,284.778Zm0,0h-4.83734a1.18865,1.18865,0,0,0-1.34637,1.13438L329.60163,297.968c-.13727.76046.137,1.147.99726,1.147h4.83719c5.32341,0,8.32784-.97246,9.3003-7.21842C345.7338,285.67557,343.00361,284.778,337.68019,284.778ZM179.1503,292.8316l-2.55579-7.33058c-.212-.62335-.561-.723-1.284-.723h-.33664a1.47013,1.47013,0,0,0-1.49612.723l-4.99911,7.33058c-.28687.47375-.17471.92254.4736.92254h9.43757C179.07557,293.75414,179.34981,293.30535,179.1503,292.8316ZM130.34212,284.778H124.545c-.87262,0-1.20926.31167-1.34637.99742l-.76062,4.91191c-.07472.68574.16223.86014,1.03485.86014,1.99484-.03743,4.00185-.07472,6.00916-.137,2.76763-.07488,4.66263-.31168,5.11127-3.31641C135.04219,285.22678,133.34655,284.778,130.34212,284.778Zm-44.931,8.05361L82.85536,285.501c-.21184-.62335-.561-.723-1.284-.723h-.34911a1.46188,1.46188,0,0,0-1.48365.723L74.727,292.8316c-.27439.47375-.16207.92254.48623.92254h9.43742C85.33643,293.75414,85.61066,293.30535,85.41115,292.8316Zm0,0L82.85536,285.501c-.21184-.62335-.561-.723-1.284-.723h-.34911a1.46188,1.46188,0,0,0-1.48365.723L74.727,292.8316c-.27439.47375-.16207.92254.48623.92254h9.43742C85.33643,293.75414,85.61066,293.30535,85.41115,292.8316Zm44.931-8.05361H124.545c-.87262,0-1.20926.31167-1.34637.99742l-.76062,4.91191c-.07472.68574.16223.86014,1.03485.86014,1.99484-.03743,4.00185-.07472,6.00916-.137,2.76763-.07488,4.66263-.31168,5.11127-3.31641C135.04219,285.22678,133.34655,284.778,130.34212,284.778Zm48.80818,8.05361-2.55579-7.33058c-.212-.62335-.561-.723-1.284-.723h-.33664a1.47013,1.47013,0,0,0-1.49612.723l-4.99911,7.33058c-.28687.47375-.17471.92254.4736.92254h9.43757C179.07557,293.75414,179.34981,293.30535,179.1503,292.8316ZM337.68019,284.778h-4.83734a1.18865,1.18865,0,0,0-1.34637,1.13438L329.60163,297.968c-.13727.76046.137,1.147.99726,1.147h4.83719c5.32341,0,8.32784-.97246,9.3003-7.21842C345.7338,285.67557,343.00361,284.778,337.68019,284.778Zm0,0h-4.83734a1.18865,1.18865,0,0,0-1.34637,1.13438L329.60163,297.968c-.13727.76046.137,1.147.99726,1.147h4.83719c5.32341,0,8.32784-.97246,9.3003-7.21842C345.7338,285.67557,343.00361,284.778,337.68019,284.778ZM179.1503,292.8316l-2.55579-7.33058c-.212-.62335-.561-.723-1.284-.723h-.33664a1.47013,1.47013,0,0,0-1.49612.723l-4.99911,7.33058c-.28687.47375-.17471.92254.4736.92254h9.43757C179.07557,293.75414,179.34981,293.30535,179.1503,292.8316ZM130.34212,284.778H124.545c-.87262,0-1.20926.31167-1.34637.99742l-.76062,4.91191c-.07472.68574.16223.86014,1.03485.86014,1.99484-.03743,4.00185-.07472,6.00916-.137,2.76763-.07488,4.66263-.31168,5.11127-3.31641C135.04219,285.22678,133.34655,284.778,130.34212,284.778Zm-44.931,8.05361L82.85536,285.501c-.21184-.62335-.561-.723-1.284-.723h-.34911a1.46188,1.46188,0,0,0-1.48365.723L74.727,292.8316c-.27439.47375-.16207.92254.48623.92254h9.43742C85.33643,293.75414,85.61066,293.30535,85.41115,292.8316ZM8.0288,269.5434,0,314.3371H493.18055l8.02865-44.7937Zm43.63436,18.82508c-.8603,5.32326-5.38566,6.18356-10.88378,6.18356-.44865,0-6.94388-.03728-6.94388-.03728a1.19811,1.19811,0,0,0-1.384,1.10942l-.54847,3.83992c-.27424,1.75774-.72318,2.06941-2.92986,2.06941h-.62335c-2.39356,0-2.69275-.31167-2.41851-2.06941l2.28155-14.72355c.31167-1.87.89758-2.38108,3.20394-2.38108H43.89611C48.5837,282.35947,52.52346,282.87051,51.66316,288.36848Zm40.57986,13.165c-2.1318,0-3.65273-.1744-4.03928-1.20926l-1.13439-2.94218c-.34911-.78543-.44894-1.07214-1.48364-1.07214H73.51762c-1.05951,0-1.2715.28671-1.82013,1.07214l-2.00716,2.90474c-.83534,1.2467-1.55837,1.2467-2.80506,1.2467-1.44621,0-1.89485-.34911-1.27151-1.2467l11.295-16.16961a3.543,3.543,0,0,1,3.553-1.75773h5.36086c1.79517,0,2.38108.349,2.90474,1.75773l6.04645,15.37186C95.38472,301.12215,94.77385,301.53351,92.243,301.53351Zm48.90786-14.41173c-.4736,3.00458-2.34365,3.7649-5.44791,4.46312-.58591.09983-.89758.19951-.97246.72318-.09983.52352.17441.58591.76047.68559,2.244.3864,4.76231.69807,4.45064,3.7028l-.27424,2.76763c-.03744.2992-.06239.58591-.09968.82271-.17456,1.13454-.62335,1.2467-2.94218,1.2467-3.24154,0-3.34122-.3864-3.10426-2.31884.723-4.69991-.37407-5.32326-4.70007-5.38566l-5.73493-.09983c-.86014,0-1.13438.19951-1.27165.99742l-.73536,4.7375c-.27438,1.75774-.72318,2.06941-2.92985,2.06941h-.62335c-2.38108,0-2.69275-.31167-2.41852-2.06941l2.2814-14.72355c.31167-1.87.89774-2.38108,3.21642-2.38108h12.60423C138.67,282.35947,141.74942,283.39417,141.15088,287.12178Zm44.83129,14.41173c-2.132,0-3.65289-.1744-4.03929-1.20926l-1.13453-2.94218c-.34911-.78543-.4488-1.07214-1.4835-1.07214h-12.0556c-1.07214,0-1.284.28671-1.83261,1.07214l-2.00716,2.90474c-.82286,1.2467-1.55837,1.2467-2.79259,1.2467-1.45869,0-1.90748-.34911-1.28413-1.2467L170.6479,284.1172a3.55088,3.55088,0,0,1,3.56538-1.75773h5.34837c1.79517,0,2.38123.349,2.9049,1.75773l6.04629,15.37186C189.13619,301.12215,188.51284,301.53351,185.98217,301.53351ZM234.728,284.25432c-.17441,1.147-.52352,1.38382-1.34638,1.20941a63.32672,63.32672,0,0,0-9.16319-.72318c-6.10884,0-8.60223,1.73293-9.5,7.25586-.99726,6.49523,2.04476,7.35538,6.88179,7.35538a41.98361,41.98361,0,0,0,4.55047-.2368,1.30021,1.30021,0,0,0,1.32142-1.24669l.41151-2.65547c.13712-.76047,0-1.10958-.86015-1.172l-2.9049-.24927c-.935-.0624-.99742-.31168-.83519-1.38382.14945-.8603.28672-1.23421,1.20926-1.23421h7.2309c2.20667,0,2.69275.44879,2.38108,2.30635l-.83519,5.11142c-.19952,1.42126-.54863,2.24412-2.03227,2.55579a60.57131,60.57131,0,0,1-9.051.723c-11.91833,0-14.88547-2.51835-13.75094-9.8363,1.07214-6.57011,4.76231-10.06092,15.995-10.02348a52.85185,52.85185,0,0,1,9.32527.79775C234.7529,283.02011,234.89,283.18218,234.728,284.25432Zm40.368,15.93281c-.17456,1.07214-.33648,1.34638-1.27151,1.34638H257.51758c-2.31883,0-2.76762-.48608-2.456-2.35612l2.31884-14.71108c.27423-1.75788.68559-2.10684,3.06682-2.10684h.62335c2.21915,0,2.55563.349,2.2814,2.10684l-2.10685,13.30215c-.09983.72318.13712,1.13454.99742,1.13454h11.95577C275.1334,298.903,275.23308,299.31435,275.096,300.18713Zm28.01337-15.72082-2.34395,14.99779c-.28671,1.75774-.73551,2.06941-2.942,2.06941H297.2c-2.38138,0-2.69306-.31167-2.41867-2.06941l2.35628-14.99779c.27423-1.75788.68574-2.10684,3.06682-2.10684h.62335C303.03446,282.35947,303.38358,282.70843,303.10934,284.46631Zm47.91044,7.45522c-1.17182,7.60482-5.04918,9.612-15.47154,9.612H325.9113c-2.31883,0-2.76762-.48608-2.45595-2.35612l2.244-14.43684c.31167-1.87.89759-2.38108,3.21657-2.38108h9.63694C348.676,282.35947,352.1916,284.39144,351.01978,291.92153Zm28.59913-7.45522-2.35612,14.99779c-.27424,1.75774-.72318,2.06941-2.92986,2.06941h-.62335c-2.38108,0-2.69275-.31167-2.41851-2.06941l2.34379-14.99779c.28672-1.75788.69807-2.10684,3.0793-2.10684h.62335C379.54419,282.35947,379.89315,282.70843,379.61891,284.46631Zm49.11985-.99741-2.49339,15.60865c-.27424,1.87005-1.20926,2.456-3.179,2.456H417.6057a3.41,3.41,0,0,1-3.5529-2.41852l-5.872-13.20262c-.4488-.95983-.66064-1.09694-1.42126-1.09694-.78527,0-1.07214.27423-1.20925,1.20925l-2.28156,14.43669c-.137.935-.61086,1.07214-1.89485,1.07214-1.172,0-1.75788-.13712-1.62076-1.07214l2.44363-15.621c.28671-1.85756,1.24669-2.48091,3.21642-2.48091h5.46053a3.08185,3.08185,0,0,1,3.27882,2.032l6.08388,13.614c.44879.97246.66079,1.10958,1.4211,1.10958.78558,0,1.05981-.27423,1.20941-1.20926l2.30636-14.43683c.13712-.935.7979-1.10943,1.93244-1.10943C428.42709,282.35947,428.87588,282.53388,428.73876,283.4689Zm46.33974.78542c-.16207,1.147-.51119,1.38382-1.34653,1.20941a62.95383,62.95383,0,0,0-9.1507-.72318c-6.10884,0-8.60224,1.73293-9.49982,7.25586-.99742,6.49523,2.0446,7.35538,6.88179,7.35538a41.98868,41.98868,0,0,0,4.55047-.2368,1.30868,1.30868,0,0,0,1.32142-1.24669l.4115-2.65547c.13712-.76047,0-1.10958-.8603-1.172l-2.90474-.24927c-.935-.0624-1.0099-.31168-.83534-1.38382.13711-.8603.27438-1.23421,1.20941-1.23421h7.21826c2.21916,0,2.70539.44879,2.39371,2.30635l-.83534,5.11142c-.212,1.42126-.54862,2.24412-2.03212,2.55579a60.57266,60.57266,0,0,1-9.051.723c-11.91849,0-14.898-2.51835-13.7511-9.8363,1.0723-6.57011,4.76247-10.06092,15.99521-10.02348a52.8534,52.8534,0,0,1,9.32526.79775C475.11594,283.02011,475.25291,283.18218,475.0785,284.25432Zm-137.39831.52367h-4.83734a1.18865,1.18865,0,0,0-1.34637,1.13438L329.60163,297.968c-.13727.76046.137,1.147.99726,1.147h4.83719c5.32341,0,8.32784-.97246,9.3003-7.21842C345.7338,285.67557,343.00361,284.778,337.68019,284.778Zm-161.08568.723c-.212-.62335-.561-.723-1.284-.723h-.33664a1.47013,1.47013,0,0,0-1.49612.723l-4.99911,7.33058c-.28687.47375-.17471.92254.4736.92254h9.43757c.68574,0,.96-.44879.76047-.92254Zm-46.25239-.723H124.545c-.87262,0-1.20926.31167-1.34637.99742l-.76062,4.91191c-.07472.68574.16223.86014,1.03485.86014,1.99484-.03743,4.00185-.07472,6.00916-.137,2.76763-.07488,4.66263-.31168,5.11127-3.31641C135.04219,285.22678,133.34655,284.778,130.34212,284.778Zm-47.48676.723c-.21184-.62335-.561-.723-1.284-.723h-.34911a1.46188,1.46188,0,0,0-1.48365.723L74.727,292.8316c-.27439.47375-.16207.92254.48623.92254h9.43742c.68575,0,.96-.44879.76047-.92254Zm2.55579,7.33058L82.85536,285.501c-.21184-.62335-.561-.723-1.284-.723h-.34911a1.46188,1.46188,0,0,0-1.48365.723L74.727,292.8316c-.27439.47375-.16207.92254.48623.92254h9.43742C85.33643,293.75414,85.61066,293.30535,85.41115,292.8316Zm44.931-8.05361H124.545c-.87262,0-1.20926.31167-1.34637.99742l-.76062,4.91191c-.07472.68574.16223.86014,1.03485.86014,1.99484-.03743,4.00185-.07472,6.00916-.137,2.76763-.07488,4.66263-.31168,5.11127-3.31641C135.04219,285.22678,133.34655,284.778,130.34212,284.778Zm48.80818,8.05361-2.55579-7.33058c-.212-.62335-.561-.723-1.284-.723h-.33664a1.47013,1.47013,0,0,0-1.49612.723l-4.99911,7.33058c-.28687.47375-.17471.92254.4736.92254h9.43757C179.07557,293.75414,179.34981,293.30535,179.1503,292.8316ZM337.68019,284.778h-4.83734a1.18865,1.18865,0,0,0-1.34637,1.13438L329.60163,297.968c-.13727.76046.137,1.147.99726,1.147h4.83719c5.32341,0,8.32784-.97246,9.3003-7.21842C345.7338,285.67557,343.00361,284.778,337.68019,284.778Zm0,0h-4.83734a1.18865,1.18865,0,0,0-1.34637,1.13438L329.60163,297.968c-.13727.76046.137,1.147.99726,1.147h4.83719c5.32341,0,8.32784-.97246,9.3003-7.21842C345.7338,285.67557,343.00361,284.778,337.68019,284.778ZM179.1503,292.8316l-2.55579-7.33058c-.212-.62335-.561-.723-1.284-.723h-.33664a1.47013,1.47013,0,0,0-1.49612.723l-4.99911,7.33058c-.28687.47375-.17471.92254.4736.92254h9.43757C179.07557,293.75414,179.34981,293.30535,179.1503,292.8316ZM130.34212,284.778H124.545c-.87262,0-1.20926.31167-1.34637.99742l-.76062,4.91191c-.07472.68574.16223.86014,1.03485.86014,1.99484-.03743,4.00185-.07472,6.00916-.137,2.76763-.07488,4.66263-.31168,5.11127-3.31641C135.04219,285.22678,133.34655,284.778,130.34212,284.778Zm-44.931,8.05361L82.85536,285.501c-.21184-.62335-.561-.723-1.284-.723h-.34911a1.46188,1.46188,0,0,0-1.48365.723L74.727,292.8316c-.27439.47375-.16207.92254.48623.92254h9.43742C85.33643,293.75414,85.61066,293.30535,85.41115,292.8316Zm0,0L82.85536,285.501c-.21184-.62335-.561-.723-1.284-.723h-.34911a1.46188,1.46188,0,0,0-1.48365.723L74.727,292.8316c-.27439.47375-.16207.92254.48623.92254h9.43742C85.33643,293.75414,85.61066,293.30535,85.41115,292.8316Zm44.931-8.05361H124.545c-.87262,0-1.20926.31167-1.34637.99742l-.76062,4.91191c-.07472.68574.16223.86014,1.03485.86014,1.99484-.03743,4.00185-.07472,6.00916-.137,2.76763-.07488,4.66263-.31168,5.11127-3.31641C135.04219,285.22678,133.34655,284.778,130.34212,284.778Zm48.80818,8.05361-2.55579-7.33058c-.212-.62335-.561-.723-1.284-.723h-.33664a1.47013,1.47013,0,0,0-1.49612.723l-4.99911,7.33058c-.28687.47375-.17471.92254.4736.92254h9.43757C179.07557,293.75414,179.34981,293.30535,179.1503,292.8316Zm0,0-2.55579-7.33058c-.212-.62335-.561-.723-1.284-.723h-.33664a1.47013,1.47013,0,0,0-1.49612.723l-4.99911,7.33058c-.28687.47375-.17471.92254.4736.92254h9.43757C179.07557,293.75414,179.34981,293.30535,179.1503,292.8316ZM130.34212,284.778H124.545c-.87262,0-1.20926.31167-1.34637.99742l-.76062,4.91191c-.07472.68574.16223.86014,1.03485.86014,1.99484-.03743,4.00185-.07472,6.00916-.137,2.76763-.07488,4.66263-.31168,5.11127-3.31641C135.04219,285.22678,133.34655,284.778,130.34212,284.778Zm-44.931,8.05361L82.85536,285.501c-.21184-.62335-.561-.723-1.284-.723h-.34911a1.46188,1.46188,0,0,0-1.48365.723L74.727,292.8316c-.27439.47375-.16207.92254.48623.92254h9.43742C85.33643,293.75414,85.61066,293.30535,85.41115,292.8316Zm0,0L82.85536,285.501c-.21184-.62335-.561-.723-1.284-.723h-.34911a1.46188,1.46188,0,0,0-1.48365.723L74.727,292.8316c-.27439.47375-.16207.92254.48623.92254h9.43742C85.33643,293.75414,85.61066,293.30535,85.41115,292.8316Zm44.931-8.05361H124.545c-.87262,0-1.20926.31167-1.34637.99742l-.76062,4.91191c-.07472.68574.16223.86014,1.03485.86014,1.99484-.03743,4.00185-.07472,6.00916-.137,2.76763-.07488,4.66263-.31168,5.11127-3.31641C135.04219,285.22678,133.34655,284.778,130.34212,284.778Zm48.80818,8.05361-2.55579-7.33058c-.212-.62335-.561-.723-1.284-.723h-.33664a1.47013,1.47013,0,0,0-1.49612.723l-4.99911,7.33058c-.28687.47375-.17471.92254.4736.92254h9.43757C179.07557,293.75414,179.34981,293.30535,179.1503,292.8316Zm0,0-2.55579-7.33058c-.212-.62335-.561-.723-1.284-.723h-.33664a1.47013,1.47013,0,0,0-1.49612.723l-4.99911,7.33058c-.28687.47375-.17471.92254.4736.92254h9.43757C179.07557,293.75414,179.34981,293.30535,179.1503,292.8316ZM130.34212,284.778H124.545c-.87262,0-1.20926.31167-1.34637.99742l-.76062,4.91191c-.07472.68574.16223.86014,1.03485.86014,1.99484-.03743,4.00185-.07472,6.00916-.137,2.76763-.07488,4.66263-.31168,5.11127-3.31641C135.04219,285.22678,133.34655,284.778,130.34212,284.778Zm-44.931,8.05361L82.85536,285.501c-.21184-.62335-.561-.723-1.284-.723h-.34911a1.46188,1.46188,0,0,0-1.48365.723L74.727,292.8316c-.27439.47375-.16207.92254.48623.92254h9.43742C85.33643,293.75414,85.61066,293.30535,85.41115,292.8316Zm0,0L82.85536,285.501c-.21184-.62335-.561-.723-1.284-.723h-.34911a1.46188,1.46188,0,0,0-1.48365.723L74.727,292.8316c-.27439.47375-.16207.92254.48623.92254h9.43742C85.33643,293.75414,85.61066,293.30535,85.41115,292.8316Zm44.931-8.05361H124.545c-.87262,0-1.20926.31167-1.34637.99742l-.76062,4.91191c-.07472.68574.16223.86014,1.03485.86014,1.99484-.03743,4.00185-.07472,6.00916-.137,2.76763-.07488,4.66263-.31168,5.11127-3.31641C135.04219,285.22678,133.34655,284.778,130.34212,284.778Zm0,0H124.545c-.87262,0-1.20926.31167-1.34637.99742l-.76062,4.91191c-.07472.68574.16223.86014,1.03485.86014,1.99484-.03743,4.00185-.07472,6.00916-.137,2.76763-.07488,4.66263-.31168,5.11127-3.31641C135.04219,285.22678,133.34655,284.778,130.34212,284.778Zm-44.931,8.05361L82.85536,285.501c-.21184-.62335-.561-.723-1.284-.723h-.34911a1.46188,1.46188,0,0,0-1.48365.723L74.727,292.8316c-.27439.47375-.16207.92254.48623.92254h9.43742C85.33643,293.75414,85.61066,293.30535,85.41115,292.8316Z"/><path class="cls-13" d="M15.85648,258.82982c-3.77833-.75663-4.28229-1.25921-3.65268-5.16457.88159-5.41586,3.14872-5.03686,7.935-4.40794,6.04547.75526,18.766,2.39347,30.73132,2.39347,14.48373,0,25.31546.12634,26.70032-9.19488,1.2599-7.68163-3.27437-8.18559-19.14365-9.06718l-5.16388-.25267c-26.0714-1.38555-36.52482-4.28161-33.50174-23.42663,3.14873-19.39495,22.922-20.5292,44.58544-20.5292A304.52123,304.52123,0,0,1,97.974,191.32239c3.4007.50259,3.90466,1.25922,3.4007,5.1632-.75525,4.28161-2.01516,5.03824-5.54151,4.53428a278.72667,278.72667,0,0,0-30.9833-2.26714c-13.35016,0-21.78842-.12633-23.174,8.187-1.13357,7.55667,3.27438,7.43034,20.15158,8.68955l4.28229.25267c22.41871,1.51051,35.89452,2.64477,32.62015,22.67-2.7711,18.1371-17.38048,22.79633-47.73417,22.79633A233.13228,233.13228,0,0,1,15.85648,258.82982Z"/><path class="cls-13" d="M131.8602,238.67825c-1.76317,11.71332,2.01516,15.23967,17.00285,15.23967,15.87,0,19.774-4.283,21.41148-15.366l3.904-24.55952c.504-2.51843,2.51912-3.4,6.1718-3.4,3.904,0,5.54151.88159,5.03755,3.52635l-3.652,23.67793c-2.51912,15.11334-8.06063,23.55159-38.288,23.55159-29.09379,0-34.00569-7.683-31.48726-23.80426l3.14873-19.8989c1.00792-5.91983,2.26713-7.05271,9.95014-7.05271h2.01515c7.9343,0,9.1942,1.13288,8.18628,7.05271Z"/><path class="cls-13" d="M213.22862,253.16129c-.88159,5.91983-2.14149,6.92775-9.69816,6.92775h-2.14081c-8.06063,0-9.06855-1.25922-8.31261-6.92775l5.41587-33.50173c.75525-4.78557,1.88882-6.54875,12.59422-8.31193a196.41924,196.41924,0,0,1,27.96091-1.88951c22.54435,0,30.10171,5.5422,27.95953,19.0187l-3.904,24.68447c-.88159,5.91983-2.1408,6.92775-9.69816,6.92775h-2.01516c-8.18627,0-9.19351-1.25922-8.43825-6.92775l4.03031-24.93714c1.5112-9.82381-3.27437-11.46065-12.34292-11.46065a58.47008,58.47008,0,0,0-12.72055,1.25921,3.92415,3.92415,0,0,0-3.65269,3.65269Z"/><path class="cls-13" d="M286.53434,260.089c-7.93429,0-9.19351-1.00792-8.31192-6.92775l5.1632-32.11618c.75663-4.78557,2.14218-8.06063,12.84757-9.57114a227.11354,227.11354,0,0,1,29.97538-2.01585c3.02239,0,3.52635.6303,3.02239,4.15665-.37762,3.0224-1.00792,4.40794-4.03031,4.40794H323.8151a118.4208,118.4208,0,0,0-17.50681,1.25922,3.75256,3.75256,0,0,0-3.02239,3.27506l-4.91191,30.6043c-.88158,5.91983-2.1408,6.92775-9.69747,6.92775Z"/><path class="cls-13" d="M346.24464,210.59525h-2.01885c-7.69067,0-8.94045,1.12607-9.95671,7.04524l-5.65815,35.5147c-.89262,5.93275.37083,6.93526,8.30868,6.93526H339.062c7.55336,0,8.8169-1.00251,9.69585-6.93526l5.67182-35.5147C355.43228,211.72132,354.16875,210.59525,346.24464,210.59525Z"/><path class="cls-13" d="M364.12374,259.45874c-3.14873-.62892-3.52636-1.13288-3.02239-4.40794.63029-3.65269,1.76317-4.28161,4.40794-3.904a186.26186,186.26186,0,0,0,28.8425,2.39347c11.20935,0,14.987-.75663,15.61729-5.16457.6303-4.65923-1.00792-5.28953-15.61729-6.17112-23.67793-1.13425-31.2346-2.89743-29.0938-16.24759,2.64477-16.37255,15.74364-16.49889,36.02017-16.49889a160.0956,160.0956,0,0,1,25.31614,1.88951c3.14873.504,3.52636.88159,3.0224,4.15665-.504,3.52636-1.63685,4.28161-4.40795,3.904a191.25876,191.25876,0,0,0-24.18188-1.76317c-11.83965,0-15.491.25129-16.2476,4.65923-.62892,4.15665.504,5.03824,14.23175,5.5422,24.30822,1.13288,32.36885,2.01584,29.97675,16.87651-2.5198,15.87-18.89235,16.75156-37.28075,16.75156A176.01057,176.01057,0,0,1,364.12374,259.45874Z"/><path class="cls-13" d="M439.1947,235.40319c2.64477-16.62522,9.69747-26.0714,41.18474-26.0714,20.15157,0,35.8952,3.779,32.99777,22.67138-.88159,6.29745-1.88951,7.304-11.71332,7.304H462.24233c-1.63684,0-3.14872.379-3.52635,2.7711C457.20547,252.406,466.77661,252.91,480.12677,252.91a205.67965,205.67965,0,0,0,21.1595-1.51189c2.89743-.37762,3.904,0,3.27506,3.65269-.504,3.4014-1.00793,3.90536-4.40795,4.40794a163.96173,163.96173,0,0,1-25.31614,1.76318C443.85394,261.22192,436.29727,253.54029,439.1947,235.40319Zm50.00062-3.4c1.88951,0,3.02239-.504,3.52636-3.02377,1.51188-8.94221-2.01448-12.59353-13.60146-12.59353-11.08439,0-16.12126,3.14873-17.63314,12.59353-.504,2.51981.63029,3.02377,2.51843,3.02377Z"/><path class="cls-13" d="M435.88247,179.75511a.22672.22672,0,0,1-.04127.14629c-.0869.12656-.29324.13073-.45149.15407a67.0905,67.0905,0,0,1-15.98669.111,39.34111,39.34111,0,0,1-4.30123-.507,1.86779,1.86779,0,0,0-.464.026c-.14154.01215-.28081.04953-.30643.2072-.02239.196.12438.24837.28518.31288a19.94015,19.94015,0,0,0,3.6491.70641q1.99569.34295,3.98123.74207,3.97032.79863,7.89122,1.82094c.40529.10569.85867.16166,1.25058.296.29429.10075.91664.05692.97916.45709.09648.61817-1.11141.46088-1.44677.41154-2.61985-.38593-5.20611-.784-7.81068-1.27164q-4.05712-.75992-8.11445-1.51963l-1.86629-.34951a1.30721,1.30721,0,0,0-.605-.01726.448.448,0,0,0-.34485.44285c.03159.25217.32161.37057.56619.43906q5.64767,1.58386,11.29526,3.16753a.84415.84415,0,0,1,.59948.38309.56829.56829,0,0,1-.35652.69123,1.53461,1.53461,0,0,1-.85383.01688c-.74312-.1349-1.4741-.32844-2.20422-.52159q-2.0196-.53451-4.0392-1.06919a13.08891,13.08891,0,0,0-3.72006-.62425c-.37511.00569-.508.12049-.26013.4495a4.54394,4.54394,0,0,1,1.4685.52406c.13614.07931.29476.11764.28641.32559a.42365.42365,0,0,1-.344.37854,2.73558,2.73558,0,0,1-1.55274.01366,8.31494,8.31494,0,0,1-2.02064-.62045,1.85171,1.85171,0,0,0-.7971-.24382c-.563.04668-1.01237-.09791-1.494.32237-.41563.36259-.56581.728-1.21216.73562a5.148,5.148,0,0,1-1.401-.29846,7.04594,7.04594,0,0,0-3.729.00854,3.62717,3.62717,0,0,1-1.53746.27019,18.20532,18.20532,0,0,1-2.097-.37379c-.1554.00019-.29685.012-.45225.01215a6.11191,6.11191,0,0,1-2.598-.495,2.59981,2.59981,0,0,0-2.1213-.34115,13.81528,13.81528,0,0,1-1.86231.68971,6.12261,6.12261,0,0,1-1.94408-.12391,13.91056,13.91056,0,0,0-3.53069-.06716c-.57881.0628-1.16387.26108-1.73822.30168-.43877.03112-.87195-.12541-1.31348-.12541a2.44052,2.44052,0,0,0-1.45512.31269c-.35453.22181-.62463.56087-.98191.77813-1.32088.80279-1.71677-1.58036-2.90635-.866a1.51575,1.51575,0,0,0-.60148.957,6.14954,6.14954,0,0,1-.30709,1.11587c-.46819.98589-1.39707.60736-2.032.02542a1.04839,1.04839,0,0,0-1.08494-.337c-.33926.16147-.4364.58535-.55547.94168a3.99962,3.99962,0,0,1-2.72866,2.40383c-1.1373.38081-2.35212.52824-3.44664,1.01872a6.01275,6.01275,0,0,0-2.65219,2.35847,2.74238,2.74238,0,0,0-.40064,1.54487,1.08421,1.08421,0,0,1-1.0339,1.04187c-.1239.02258-1.02374-.018-.81806.36525a2.30988,2.30988,0,0,0,.86322.873c1.35181.8322,2.5078,1.95243,3.88333,2.75655a12.2918,12.2918,0,0,0,3.814,1.46707,2.46013,2.46013,0,0,1,1.04386.55348c.16118.14724.22579.23755.20767.28992-.1184.34343-3.11849-.50736-3.18309-.30188a9.10891,9.10891,0,0,0,2.41416,1.14111c.00019,0,1.31472.50072,4.4849,2.07215.17068.08463.50936.27114.58061.58535a.63374.63374,0,0,1-.29751.64493,1.03963,1.03963,0,0,1-.7306.1165,3.09622,3.09622,0,0,1-.71361-.24609c-.84283-.37018-1.68253-.74758-2.50961-1.14186-1.04889-.50016-2.092-1.01189-3.14571-1.502a8.89781,8.89781,0,0,0-2.91024-.95895c-.08453.19582,5.02841,2.29226,4.8344,2.88539-.14942.4569-3.37739-.1924-3.94148-.30586a22.10922,22.10922,0,0,1-3.30832-.89918c-2.99487-1.06976-3.50508-2.079-5.8832-2.82183-1.50284-.46942-3.0848-.49218-4.58432-.92328-.25729-.13357-.57549-.06811-.82424-.25463-1.03105-.25008-2.07946-.395-3.09989-.67225-2.24226-.48536-4.4867-.99633-6.72583-1.443-2.56823-.5123-5.1488-1.04566-7.71248-1.48946a12.64962,12.64962,0,0,1-6.41922-3.171,12.499,12.499,0,0,0-1.58319-1.39194,3.44769,3.44769,0,0,0-2.35744-.422,6.1598,6.1598,0,0,0-2.44718.59749,5.99557,5.99557,0,0,0-1.69647,1.23351,2.77068,2.77068,0,0,1-.10559-2.54917,8.123,8.123,0,0,0,1.52817-.15407c.49722-.09335.80365-.30055.83761-.82119a2.88271,2.88271,0,0,0-1.3001-.215c-.46724-.01252-.76114-.27266-.50082-.72215.60043-1.03675.98532-2.16608,1.65179-3.17759a14.12172,14.12172,0,0,1,1.395-1.78679c.49048-.53355,1.21121-.95079,1.20723-1.75112a11.38926,11.38926,0,0,0-.69113-4.4109,7.52013,7.52013,0,0,0-3.06878-3.82119c-.29267-.09183-.51789-.30624-.79861-.41192a3.83043,3.83043,0,0,1-.54058-.57644,1.73465,1.73465,0,0,0-1.77189-.58933,4.22107,4.22107,0,0,1-3.33991-.75593c-1.18588-1.01416-2.74-1.324-4.10362-1.98677a19.25694,19.25694,0,0,1-2.99524-1.32743c-.32161-.21839-.51762-.6011-.83268-.79084a3.12269,3.12269,0,0,0-1.27952-.1922,4.81592,4.81592,0,0,1-2.15213-.77,1.84546,1.84546,0,0,0-2.07994-.29638,2.48778,2.48778,0,0,1-2.47858-1.33274c-.29751-.52178-.45263-1.1688-.95032-1.50464a2.3164,2.3164,0,0,0-.91265-.29637,14.2435,14.2435,0,0,1-2.06694-.48289,1.12731,1.12731,0,0,1-.76124-.84492c-.06271-.35614.04838-.755-.13984-1.06388a1.25644,1.25644,0,0,0-.76608-.45139,10.26313,10.26313,0,0,1-3.23327-1.2039c-1.13655-.88894-2.59423-1.12915-3.81967-1.8422-.99377-.57719-2.13421-.89595-3.0831-1.55435-.71513-.49712-1.54705-.9969-1.36756-2.09986-.08064-.18747.079-.29163.13149-.4383a5.4831,5.4831,0,0,1,.53526-1.02916,6.40673,6.40673,0,0,1,1.98042-2.01827,8.28016,8.28016,0,0,1,1.98336-.9043.93876.93876,0,0,1,.96882.12561.72611.72611,0,0,1,.01451.94433,10.05485,10.05485,0,0,0-.86559,2.49453c-.26972.64417-.78914,1.24451-.15967,1.95584a7.98972,7.98972,0,0,0,3.51523,1.764,6.7851,6.7851,0,0,0,2.22822.3182c1.09215.05066,2.1694.23243,3.26572.3347a28.17938,28.17938,0,0,1,6.50858,1.05894,44.36352,44.36352,0,0,1,6.448,2.87438q5.12,2.6634,10.081,5.61785,2.5356,1.50986,5.02623,3.09372a31.69607,31.69607,0,0,1,4.1612,3.29978,23.00143,23.00143,0,0,0,6.69519,3.85477,23.03577,23.03577,0,0,0,3.48782.97641l2.988.11175c5.84724.25426,12.32632-2.564,17.09317-5.7148a24.24742,24.24742,0,0,1,3.76873-2.27878c2.84449-1.20884,6.09437-.88875,9.12529-.28366,5.24614,1.04737,10.55044,1.78489,15.8702,2.337a139.89451,139.89451,0,0,0,15.95064,1.20163,51.94374,51.94374,0,0,0,6.26581-.4421c2.27936-.30794,4.56421-.55138,6.81444-1.051,1.08134-.233,2.20441-.2755,3.28679-.496,1.83451-.36089,3.69491-.569,5.54991-.84131.47692-.02694.95269-.067,1.41575-.10588.18111-.00227.39542-.07172.48014.16716.06983.21422-.06081.35463-.20539.48327a5.78013,5.78013,0,0,1-2.19227,1.03883,48.88784,48.88784,0,0,1-10.26943,1.54791c-.78552.05313-1.58272.11992-2.36834.173-1.85984.0222-3.70165.28537-5.55523.38575-.15976.00853-.35424.04174-.408.1922a.28189.28189,0,0,0,.15426.3201.81968.81968,0,0,0,.37749.06716c5.46994.09506,10.93675-.09961,16.38933-.53886.34836-.02808,1.51337-.13092,1.68347.20928.08586.25179-.12418.37322-.32445.45462-.3515.1332-.70394.25331-1.04367.37246-.71115.18272-1.44564.36317-2.15935.50946a17.31762,17.31762,0,0,1-2.46188.15255q-1.513.08338-3.02618.16659-.73614.04069-1.47219.081c-.25151.014-.97081-.1258-.92063.28271.03444.256.27333.17115.45557.18178,1.24024.07229,2.44234.26905,3.6822.347q2.06073.1295,4.12136.25919,4.12131.25928,8.24272.51837a21.0118,21.0118,0,0,1,6.29142.39428C435.46637,179.45494,435.85771,179.55835,435.88247,179.75511Z"/></svg>