<svg id="Layer_1" data-name="Layer 1" xmlns="http://www.w3.org/2000/svg" viewBox="0 0 373.44159 359.19635"><defs><style>.cls-1{fill:#282828;}.cls-2{fill:#fbcc0a;}.cls-3{fill:#fcb017;}.cls-4{fill:#f7901e;}.cls-5{fill:#f17623;}.cls-6{fill:#ec4b25;}.cls-7{fill:#d71f27;}.cls-8{fill:#ed2024;}.cls-9{fill:#e38649;}.cls-10{fill:none;stroke:#231f20;stroke-miterlimit:10;stroke-width:0.33581px;}.cls-11{fill:#fff;}</style></defs><path class="cls-1" d="M365.97094,220.12343q-9.528-4.30224-19.05619-8.54928a20.8082,20.8082,0,0,1-6.38082-3.833c-1.631-1.59971-2.88994-3.833-5.12167-4.41266-2.31764-.579-4.60665.85506-6.95294,1.1035-4.92153.52381-10.61549-4.826-13.27648-8.38365a10.44481,10.44481,0,0,1-1.37337-3.28156,61.40312,61.40312,0,0,0-5.29351-12.46506,7.18631,7.18631,0,0,0-1.402-1.931,7.785,7.785,0,0,0-2.77538-1.32367c-2.48932-.82678-4.97881-1.65424-7.43949-2.4817a2.80742,2.80742,0,0,0-1.37337-3.00618,16.94185,16.94185,0,0,0-3.29057-1.54383,39.52322,39.52322,0,0,1-5.80835-3.83364c-.22895-.16563-.48637-.33125-.71532-.49621a61.14418,61.14418,0,0,0-7.55388-3.668c-5.92292-2.70254-14.67849-6.81155-16.82447-13.07169-.658-1.87508-2.08869-3.9986-4.14892-3.80537-.34334-5.07449,3.033-10.61759.34334-15.03025a10.60858,10.60858,0,0,0-1.85974-2.17872c-.40062-.38579-.82989-.744-1.2017-1.13044-3.46224-3.30916-5.29351-7.25255-7.43949-11.36156A119.0185,119.0185,0,0,0,236.583,98.94826c-2.68963-3.5576-5.83717-5.5707-7.69691-9.67972-.68686-1.5445-1.31626-3.1166-1.88856-4.74324q-.515-1.3654-.94428-2.73081l-2.06005-3.80537a13.29482,13.29482,0,0,1-2.37493,1.13111c-.45773.05453-3.37631-.41407-3.37631-.41407s-4.578-.35885-5.29334-.27537a19.49713,19.49713,0,0,0-3.49088,1.599s-.97275,1.32366-3.20465,3.94338a5.46925,5.46925,0,0,1-4.95,2.12352l-1.71689,3.365s-5.03574-2.648-5.92274-2.75774c-.85853-.11042-5.06456-4.55069-5.06456-4.55069l-3.29056-2.0131a28.72141,28.72141,0,0,0-5.03592,1.43409c-1.545.74464-4.32042,7.05931-4.32042,7.05931L174.95042,91.557s-.28606.30365-.65805.68944a14.98825,14.98825,0,0,0-1.43065,1.68252,20.00418,20.00418,0,0,0-1.774,5.59831c-1.11595,5.267-5.00728,9.6245-6.26626,14.91916-.4579-.24844-.91564-.49621-1.37354-.77225.17184,4.109-3.51935,7.363-5.00728,11.19661a44.57384,44.57384,0,0,0-1.37337,5.51549,22.56761,22.56761,0,0,1-3.60527,7.72182,20.82806,20.82806,0,0,1-2.00277,2.42649c-.80125.85506-7.12479,6.75634-8.32648,6.12211s-2.37493-1.26845-3.57663-1.90268c-2.661,1.9855-6.55232,1.79227-9.242,3.72323a13.25589,13.25589,0,0,0-3.49088,4.4948c-.34334.63423-.71532,1.46169-1.08731,2.34435-3.4907-1.35127-6.9243-2.73014-10.38653-4.0538V151.235c-1.5164-1.40647-3.80541-3.25462-4.063-2.75774,0,0-.20032.41339-.515.96548v.02693a14.68631,14.68631,0,0,1-2.17461,3.392c-.91564.74465-2.77538,4.46787-2.77538,4.46787-5.35062,2.84056-6.75281,4.74324-10.67278,8.82465-3.34767,3.53-8.269,5.35054-12.38931,7.83224-6.89583,4.19183-12.10342,10.4789-18.51271,15.38844-9.242,7.08692-20.54413,10.94749-31.646,14.58791-9.21331,3.00618-20.11486,5.07449-28.92772,9.10069-.11439-.579-.229-1.158-.372-1.73706,15.50821,84.02843,91.73332,147.87,183.40937,147.87,88.09958,0,161.92113-58.93267,181.34931-138.10744C367.373,220.75766,366.68627,220.42641,365.97094,220.12343ZM125.736,155.344c-1.17305,2.56451-2.63234,5.43267-5.20759,3.5852-1.917-1.37887-2.68945-4.32985-3.8054-6.26014a8.472,8.472,0,0,0-1.37354-1.37887C118.81169,152.61388,122.24529,153.96514,125.736,155.344Zm199.719,82.3735c-.14321.19323-.48655.19323-.744.22084a113.19113,113.19113,0,0,1-25.92338.19323c-2.31765-.22084-4.72122-.35886-6.98159-.79985a3.68589,3.68589,0,0,0-.7726.0276c-.229.0276-.42927.08281-.48638.33125-.02864.303.20032.38579.45774.49621a35.50839,35.50839,0,0,0,5.92291,1.10283c2.17462.35885,4.32059.74464,6.46657,1.15871,4.29195.82678,8.55526,1.79226,12.78993,2.83988.65822.16563,1.40219.24844,2.03159.4686.48637.16563,1.48793.08349,1.60232.71772.143.96481-1.80263.71637-2.34628.63423-4.26332-.6073-8.44088-1.21325-12.67555-1.98617-4.3777-.79918-8.78422-1.57143-13.16192-2.37129-1.00156-.19323-2.03158-.35818-3.033-.55141a2.31477,2.31477,0,0,0-.97292-.02761.73548.73548,0,0,0-.57229.68944c.05728.41339.515.579.91563.68944,6.12323,1.65491,12.21782,3.30916,18.341,4.9634a1.44217,1.44217,0,0,1,.97275.6073.89029.89029,0,0,1-.60076,1.07522,2.57327,2.57327,0,0,1-1.37355.02761c-1.20169-.22084-2.40339-.52381-3.57662-.82746-2.17462-.55142-4.3777-1.10283-6.55232-1.68185a22.25456,22.25456,0,0,0-6.03731-.96548c-.60093,0-.82989.19323-.42926.717a7.70965,7.70965,0,0,1,2.40357.79985c.20014.138.45773.19323.45773.52381a.68373.68373,0,0,1-.57229.579,4.59474,4.59474,0,0,1-2.518.02761,13.3978,13.3978,0,0,1-3.26176-.96481,3.15256,3.15256,0,0,0-1.28762-.38646c-.91563.08281-1.6596-.16563-2.43221.49688-.68668.579-.91563,1.158-1.9743,1.158a9.177,9.177,0,0,1-2.26037-.46861,11.602,11.602,0,0,0-6.06594.02694,5.91012,5.91012,0,0,1-2.48932.41406c-1.14459-.138-2.26054-.33058-3.405-.579h-.71532a10.12036,10.12036,0,0,1-4.23467-.77225c-1.20188-.52381-2.06023-.96548-3.4336-.52381a20.94476,20.94476,0,0,1-3.033,1.07523,11.05583,11.05583,0,0,1-3.14754-.19323,23.42894,23.42894,0,0,0-5.7226-.11042c-.94411.11042-1.88839.41406-2.83266.46927-.71533.05521-1.402-.19323-2.11734-.19323a4.15547,4.15547,0,0,0-2.37493.49688c-.57229.33058-1.00138.882-1.57368,1.21325-2.146,1.26845-2.804-2.48238-4.72122-1.35194a2.26191,2.26191,0,0,0-.97274,1.48929,8.75673,8.75673,0,0,1-.515,1.73773c-.744,1.5445-2.26054.9648-3.29056.05521a1.68745,1.68745,0,0,0-1.74535-.52449c-.5723.24844-.71533.91027-.91564,1.46236a6.38466,6.38466,0,0,1-4.435,3.75016c-1.83128.60662-3.80558.82746-5.57958,1.59971a9.66327,9.66327,0,0,0-4.292,3.69494,4.15876,4.15876,0,0,0-.658,2.42717c-.05729.96481-.68669,1.43408-1.68825,1.62731-.20031.02693-1.6596-.02828-1.31608.55142a3.66958,3.66958,0,0,0,1.402,1.37887c2.20309,1.29606,4.063,3.06072,6.2949,4.30157,1.85974,1.29673,4.063,1.68252,6.18034,2.28914a4.1809,4.1809,0,0,1,1.71671.88267c.25759.22016.34334.35819.31488.441-.17168.55209-5.06456-.79986-5.15049-.4686,0,.24776,2.20326,1.158,3.92,1.79226,0,0,2.11751.77225,7.26782,3.22635.28606.13869.82971.44167.94428.91027a1.01487,1.01487,0,0,1-.48655,1.02069,1.725,1.725,0,0,1-1.17306.19256,8.20833,8.20833,0,0,1-1.17323-.38579c-1.37337-.579-2.71809-1.18564-4.063-1.79227-1.71671-.77225-3.40495-1.5721-5.093-2.34435a15.80271,15.80271,0,0,0-4.74986-1.51689c-.11439.30364,8.18328,3.5852,7.86858,4.52308-.25742.717-5.49365-.30365-6.40929-.46861a42.18743,42.18743,0,0,1-5.35062-1.40715c-4.86425-1.68184-5.694-3.254-9.55682-4.412-2.432-.74465-5.00728-.77225-7.43932-1.46169-.42926-.19323-.94428-.11042-1.3449-.38646-1.65943-.38579-3.37632-.63423-5.00728-1.04762-3.66237-.77225-7.29628-1.57211-10.93-2.26154-4.14892-.79918-8.35512-1.62664-12.50387-2.34368a20.78281,20.78281,0,0,1-10.41518-4.93647,17.37381,17.37381,0,0,0-2.57524-2.17873,5.70056,5.70056,0,0,0-3.80558-.66183,10.09225,10.09225,0,0,0-3.97708.93787,9.32073,9.32073,0,0,0-2.74691,1.93029,4.45128,4.45128,0,0,1-.60094-1.93029,4.18933,4.18933,0,0,1,.42927-2.06831,12.35722,12.35722,0,0,0,2.46067-.24844c.80125-.138,1.31627-.4686,1.37355-1.26845a4.55986,4.55986,0,0,0-2.11751-.33125c-.74379-.02761-1.23034-.441-.80108-1.13044.97275-1.62731,1.57369-3.392,2.661-4.99168a26.3046,26.3046,0,0,1,2.26037-2.78535c.80125-.82746,1.9743-1.48861,1.9743-2.73014a17.14575,17.14575,0,0,0-1.11577-6.89436c-.94428-2.17873-2.68963-4.93647-4.97881-5.98409-.48637-.138-.85836-.46861-1.31609-.63423a6.574,6.574,0,0,1-.85835-.91027,2.94267,2.94267,0,0,0-2.88995-.91027,7.11084,7.11084,0,0,1-5.4079-1.18565c-1.917-1.599-4.46362-2.06831-6.66688-3.11593a31.28915,31.28915,0,0,1-4.86425-2.0683c-.515-.33126-.82971-.93788-1.34473-1.24086a5.64293,5.64293,0,0,0-2.06022-.30364,7.71615,7.71615,0,0,1-3.49071-1.18565,4.68553,4.68553,0,0,0-1.2017-.6625,4.52771,4.52771,0,0,0-2.17461.19323,4.11462,4.11462,0,0,1-4.03454-2.09591c-.48637-.79986-.74379-1.81987-1.545-2.34368a3.90029,3.90029,0,0,0-1.48793-.46928,27.72066,27.72066,0,0,1-3.34767-.74464,1.87162,1.87162,0,0,1-1.23034-1.32367c-.08593-.55141.08592-1.18564-.229-1.68184a2.16389,2.16389,0,0,0-1.23033-.68944c-1.74536-.49688-3.77694-.82746-5.2647-1.87575-1.83128-1.40581-4.20621-1.76466-6.18051-2.8951-1.60232-.91027-3.46206-1.40647-5.00728-2.42716-1.14441-.77225-2.518-1.57211-2.20326-3.28156-.143-.30365.11457-.4686.20032-.68943a7.86233,7.86233,0,0,1,.85853-1.599,10.54767,10.54767,0,0,1,3.23311-3.17181,13.21835,13.21835,0,0,1,3.20481-1.40648,1.58652,1.58652,0,0,1,1.57369.19323c.48637.441.28606,1.02.02864,1.48862a14.7857,14.7857,0,0,0-1.40219,3.88885c-.45773,1.02069-1.28744,1.95789-.25742,3.06072,1.545,1.59971,3.66238,2.06831,5.694,2.75775a11.37517,11.37517,0,0,0,3.60527.49688c1.774.08281,3.51935.35818,5.29334.52381a47.52257,47.52257,0,0,1,10.58685,1.65491,75.48875,75.48875,0,0,1,10.44382,4.49481c5.55093,2.78535,10.9873,5.70872,16.36656,8.797,2.74692,1.57211,5.46519,3.17181,8.15482,4.82606a50.2023,50.2023,0,0,1,6.75263,5.1573,40.335,40.335,0,0,0,6.26626,4.05381,45.49359,45.49359,0,0,0,4.578,1.98549,38.67948,38.67948,0,0,0,5.66532,1.5169l4.83561.16563c9.49954.41339,20.00064-3.9986,27.75466-8.93507a40.533,40.533,0,0,1,6.09458-3.5576c4.6353-1.87575,9.90017-1.37887,14.82153-.44167,8.49815,1.62731,17.1107,2.786,25.72307,3.668,8.49816.82746,17.33948,1.9579,25.89492,1.87576a96.2293,96.2293,0,0,0,10.15759-.68944c3.691-.49688,7.41067-.88267,11.07322-1.65492,1.74535-.35885,3.57663-.44167,5.322-.77225,2.97586-.579,5.9802-.88266,9.01317-1.32366.77243-.0276,1.545-.11042,2.289-.16563.28607,0,.62941-.11041.77261.276.11439.33058-.08592.55141-.34334.744a9.60278,9.60278,0,0,1-3.54816,1.62731,82.77756,82.77756,0,0,1-16.65262,2.42717c-1.28762.08214-2.57524.19255-3.83422.27537-3.033.0276-6.00867.44167-9.01317.57969-.25742.02693-.60077.08214-.68669.303a.45789.45789,0,0,0,.2576.4962,1.21853,1.21853,0,0,0,.6294.11042c8.87014.16562,17.7401-.138,26.5816-.82746.57212-.05521,2.46068-.22016,2.7181.33125.1432.38579-.20014.579-.515.68944-.5723.22083-1.14442.41339-1.68807.60662-1.17324.27537-2.34629.55142-3.51952.77225a27.32481,27.32481,0,0,1-3.97708.24777c-1.631.08348-3.29057.16562-4.92153.24844-.80107.05521-1.60232.11041-2.37493.138-.42909.0276-1.57368-.19323-1.5164.441.05728.41406.45773.276.744.276,2.03141.138,3.97725.441,5.98.55141q3.34785.207,6.69552.4134c4.46363.276,8.89861.52448,13.36223.79985a35.59525,35.59525,0,0,1,10.21487.63423c.17167.02828.82972.19323.85836.49688C325.54074,237.58017,325.455,237.69059,325.455,237.71752Z"/><path class="cls-2" d="M371.95114,201.81162A178.40872,178.40872,0,0,1,368.26,221.17105c-.05711-.02693-.143-.05521-.20031-.08214-.68669-.33125-1.37337-.6625-2.0887-.96548q-9.528-4.30224-19.05619-8.54928a20.8082,20.8082,0,0,1-6.38082-3.833c-1.631-1.59971-2.88994-3.833-5.12167-4.41266-2.31764-.579-4.60665.85506-6.95294,1.1035-4.92153.52381-10.61549-4.826-13.27648-8.38365a10.44481,10.44481,0,0,1-1.37337-3.28156,61.40312,61.40312,0,0,0-5.29351-12.46506,7.18631,7.18631,0,0,0-1.402-1.931,7.785,7.785,0,0,0-2.77538-1.32367c-2.48932-.82678-4.97881-1.65424-7.43949-2.4817a2.80742,2.80742,0,0,0-1.37337-3.00618,16.94185,16.94185,0,0,0-3.29057-1.54383,39.52322,39.52322,0,0,1-5.80835-3.83364l84.89477-11.1138.42927-.05521A173.05,173.05,0,0,1,371.95114,201.81162Z"/><path class="cls-3" d="M371.75083,155.01276l-.42927.05521-84.89477,11.1138c-.22895-.16563-.48637-.33125-.71532-.49621a61.14418,61.14418,0,0,0-7.55388-3.668c-5.92292-2.70254-14.67849-6.81155-16.82447-13.07169-.658-1.87508-2.08869-3.9986-4.14892-3.80537-.34334-5.07449,3.033-10.61759.34334-15.03025a10.60858,10.60858,0,0,0-1.85974-2.17872l78.39956-58.27084.25759-.19256a177.4968,177.4968,0,0,1,24.57866,40.4007A169.42293,169.42293,0,0,1,371.75083,155.01276Z"/><path class="cls-4" d="M334.325,69.46812l-.25759.19256L255.6678,127.93152c-.40062-.38579-.82989-.744-1.2017-1.13044-3.46224-3.30916-5.29351-7.25255-7.43949-11.36156A119.0185,119.0185,0,0,0,236.583,98.94826c-2.68963-3.5576-5.83717-5.5707-7.69691-9.67972-.68686-1.5445-1.31626-3.1166-1.88856-4.74324l30.30126-71.17757.02864-.0276a187.89924,187.89924,0,0,1,42.37587,23.19239A185.223,185.223,0,0,1,334.325,69.46812Z"/><path class="cls-5" d="M257.3274,13.32013l-.02864.0276L226.9975,84.5253q-.515-1.3654-.94428-2.73081l-2.06005-3.80537a13.29482,13.29482,0,0,1-2.37493,1.13111c-.45773.05453-3.37631-.41407-3.37631-.41407s-4.578-.35885-5.29334-.27537a19.49713,19.49713,0,0,0-3.49088,1.599s-.97275,1.32366-3.20465,3.94338a5.46925,5.46925,0,0,1-4.95,2.12352l-1.71689,3.365s-5.03574-2.648-5.92274-2.75774c-.85853-.11042-5.06456-4.55069-5.06456-4.55069l-3.29056-2.0131a28.72141,28.72141,0,0,0-5.03592,1.43409c-1.545.74464-4.32042,7.05931-4.32042,7.05931L174.95042,91.557s-.28606.30365-.65805.68944L161.41652,1.65492V1.62731c.34334-.05521.71532-.08281,1.05866-.11042a15.85355,15.85355,0,0,1,1.60233-.19323C166.59547.99308,169.11342.77225,171.66.579c.3718-.02761.71532-.05454,1.08713-.08281.744-.05521,1.45929-.11042,2.20326-.13735,1.54521-.11042,3.09025-.19323,4.63529-.22084.3147-.0276.62958-.0276.94428-.0276C182.304.0276,184.10662,0,185.88061,0h.82972c1.85991,0,3.74829.0276,5.60821.08281,1.9743.05521,3.94861.16563,5.95156.27605,3.94861.24776,7.95432.60662,11.93157,1.10283A193.32833,193.32833,0,0,1,240.30262,7.5562c1.48776.41339,2.97569.88266,4.46363,1.35126,2.03141.60663,4.03436,1.29606,6.00866,1.9855,1.43065.52381,2.8613,1.02069,4.26331,1.5721C255.81083,12.74111,256.58344,13.01648,257.3274,13.32013Z"/><path class="cls-6" d="M174.29237,92.24645a14.98825,14.98825,0,0,0-1.43065,1.68252,20.00418,20.00418,0,0,0-1.774,5.59831c-1.11595,5.267-5.00728,9.6245-6.26626,14.91916-.4579-.24844-.91564-.49621-1.37354-.77225.17184,4.109-3.51935,7.363-5.00728,11.19661a44.57384,44.57384,0,0,0-1.37337,5.51549,22.56761,22.56761,0,0,1-3.60527,7.72182L72.45857,37.72577l-.17167-.19256a188.49117,188.49117,0,0,1,42.08981-23.57886,185.176,185.176,0,0,1,30.27262-9.34846c3.00433-.71771,6.03731-1.29673,9.07028-1.79294,1.45929-.24844,2.91858-.4962,4.3777-.717a6.91554,6.91554,0,0,1,.744-.11041c.85835-.13735,1.71688-.24777,2.57524-.35819v.02761Z"/><path class="cls-7" d="M110.77144,149.44274v.02693a14.68631,14.68631,0,0,1-2.17461,3.392c-.91564.74465-2.77538,4.46787-2.77538,4.46787-5.35062,2.84056-6.75281,4.74324-10.67278,8.82465-3.34767,3.53-8.269,5.35054-12.38931,7.83224-6.89583,4.19183-12.10342,10.4789-18.51271,15.38844-9.242,7.08692-20.54413,10.94749-31.646,14.58791-9.21331,3.00618-20.11486,5.07449-28.92772,9.10069-.11439-.579-.229-1.158-.372-1.73706q-.17158-.91094-.34334-1.82054a167.914,167.914,0,0,1-1.57368-52.89337A169.69419,169.69419,0,0,1,13.77325,111.385l.4579.19323Z"/><path class="cls-8" d="M153.462,138.10811a20.82806,20.82806,0,0,1-2.00277,2.42649c-.80125.85506-7.12479,6.75634-8.32648,6.12211s-2.37493-1.26845-3.57663-1.90268c-2.661,1.9855-6.55232,1.79227-9.242,3.72323a13.25589,13.25589,0,0,0-3.49088,4.4948c-.34334.63423-.71532,1.46169-1.08731,2.34435-3.4907-1.35127-6.9243-2.73014-10.38653-4.0538V151.235c-1.5164-1.40647-3.80541-3.25462-4.063-2.75774,0,0-.20032.41339-.515.96548v.02693l-96.54029-37.8914-.4579-.19323a172.09027,172.09027,0,0,1,24.178-40.62153A182.5909,182.5909,0,0,1,72.2869,37.50561v.0276l.17167.19256Z"/><path class="cls-8" d="M125.736,155.344c-1.17305,2.56451-2.63234,5.43267-5.20759,3.5852-1.917-1.37887-2.68945-4.32985-3.8054-6.26014a8.472,8.472,0,0,0-1.37354-1.37887C118.81169,152.61388,122.24529,153.96514,125.736,155.344Z"/><polygon class="cls-9" points="293.01 168.154 293.008 168.182 292.98 168.181 292.981 168.153 293.01 168.154"/><line class="cls-10" x1="293.00848" y1="168.18161" x2="292.97993" y2="168.1804"/><line class="cls-10" x1="293.00723" y1="168.209" x2="293.00848" y2="168.18161"/><line class="cls-10" x1="293.00723" y1="168.209" x2="293.00848" y2="168.18161"/><line class="cls-10" x1="293.00723" y1="168.209" x2="293.00848" y2="168.18161"/><line class="cls-10" x1="293.00848" y1="168.18161" x2="292.97993" y2="168.1804"/><path class="cls-11" d="M325.5121,237.46976c.02864.11041-.05711.22083-.05711.24776-.14321.19323-.48655.19323-.744.22084a113.19113,113.19113,0,0,1-25.92338.19323c-2.31765-.22084-4.72122-.35886-6.98159-.79985a3.68589,3.68589,0,0,0-.7726.0276c-.229.0276-.42927.08281-.48638.33125-.02864.303.20032.38579.45774.49621a35.50839,35.50839,0,0,0,5.92291,1.10283c2.17462.35885,4.32059.74464,6.46657,1.15871,4.29195.82678,8.55526,1.79226,12.78993,2.83988.65822.16563,1.40219.24844,2.03159.4686.48637.16563,1.48793.08349,1.60232.71772.143.96481-1.80263.71637-2.34628.63423-4.26332-.6073-8.44088-1.21325-12.67555-1.98617-4.3777-.79918-8.78422-1.57143-13.16192-2.37129-1.00156-.19323-2.03158-.35818-3.033-.55141a2.31477,2.31477,0,0,0-.97292-.02761.73548.73548,0,0,0-.57229.68944c.05728.41339.515.579.91563.68944,6.12323,1.65491,12.21782,3.30916,18.341,4.9634a1.44217,1.44217,0,0,1,.97275.6073.89029.89029,0,0,1-.60076,1.07522,2.57327,2.57327,0,0,1-1.37355.02761c-1.20169-.22084-2.40339-.52381-3.57662-.82746-2.17462-.55142-4.3777-1.10283-6.55232-1.68185a22.25456,22.25456,0,0,0-6.03731-.96548c-.60093,0-.82989.19323-.42926.717a7.70965,7.70965,0,0,1,2.40357.79985c.20014.138.45773.19323.45773.52381a.68373.68373,0,0,1-.57229.579,4.59474,4.59474,0,0,1-2.518.02761,13.3978,13.3978,0,0,1-3.26176-.96481,3.15256,3.15256,0,0,0-1.28762-.38646c-.91563.08281-1.6596-.16563-2.43221.49688-.68668.579-.91563,1.158-1.9743,1.158a9.177,9.177,0,0,1-2.26037-.46861,11.602,11.602,0,0,0-6.06594.02694,5.91012,5.91012,0,0,1-2.48932.41406c-1.14459-.138-2.26054-.33058-3.405-.579h-.71532a10.12036,10.12036,0,0,1-4.23467-.77225c-1.20188-.52381-2.06023-.96548-3.4336-.52381a20.94476,20.94476,0,0,1-3.033,1.07523,11.05583,11.05583,0,0,1-3.14754-.19323,23.42894,23.42894,0,0,0-5.7226-.11042c-.94411.11042-1.88839.41406-2.83266.46927-.71533.05521-1.402-.19323-2.11734-.19323a4.15547,4.15547,0,0,0-2.37493.49688c-.57229.33058-1.00138.882-1.57368,1.21325-2.146,1.26845-2.804-2.48238-4.72122-1.35194a2.26191,2.26191,0,0,0-.97274,1.48929,8.75673,8.75673,0,0,1-.515,1.73773c-.744,1.5445-2.26054.9648-3.29056.05521a1.68745,1.68745,0,0,0-1.74535-.52449c-.5723.24844-.71533.91027-.91564,1.46236a6.38466,6.38466,0,0,1-4.435,3.75016c-1.83128.60662-3.80558.82746-5.57958,1.59971a9.66327,9.66327,0,0,0-4.292,3.69494,4.15876,4.15876,0,0,0-.658,2.42717c-.05729.96481-.68669,1.43408-1.68825,1.62731-.20031.02693-1.6596-.02828-1.31608.55142a3.66958,3.66958,0,0,0,1.402,1.37887c2.20309,1.29606,4.063,3.06072,6.2949,4.30157,1.85974,1.29673,4.063,1.68252,6.18034,2.28914a4.1809,4.1809,0,0,1,1.71671.88267c.25759.22016.34334.35819.31488.441-.17168.55209-5.06456-.79986-5.15049-.4686,0,.24776,2.20326,1.158,3.92,1.79226,0,0,2.11751.77225,7.26782,3.22635.28606.13869.82971.44167.94428.91027a1.01487,1.01487,0,0,1-.48655,1.02069,1.725,1.725,0,0,1-1.17306.19256,8.20833,8.20833,0,0,1-1.17323-.38579c-1.37337-.579-2.71809-1.18564-4.063-1.79227-1.71671-.77225-3.40495-1.5721-5.093-2.34435a15.80271,15.80271,0,0,0-4.74986-1.51689c-.11439.30364,8.18328,3.5852,7.86858,4.52308-.25742.717-5.49365-.30365-6.40929-.46861a42.18743,42.18743,0,0,1-5.35062-1.40715c-4.86425-1.68184-5.694-3.254-9.55682-4.412-2.432-.74465-5.00728-.77225-7.43932-1.46169-.42926-.19323-.94428-.11042-1.3449-.38646-1.65943-.38579-3.37632-.63423-5.00728-1.04762-3.66237-.77225-7.29628-1.57211-10.93-2.26154-4.14892-.79918-8.35512-1.62664-12.50387-2.34368a20.78281,20.78281,0,0,1-10.41518-4.93647,17.37381,17.37381,0,0,0-2.57524-2.17873,5.70056,5.70056,0,0,0-3.80558-.66183,10.09225,10.09225,0,0,0-3.97708.93787,9.32073,9.32073,0,0,0-2.74691,1.93029,4.45128,4.45128,0,0,1-.60094-1.93029,4.18933,4.18933,0,0,1,.42927-2.06831,12.35722,12.35722,0,0,0,2.46067-.24844c.80125-.138,1.31627-.4686,1.37355-1.26845a4.55986,4.55986,0,0,0-2.11751-.33125c-.74379-.02761-1.23034-.441-.80108-1.13044.97275-1.62731,1.57369-3.392,2.661-4.99168a26.3046,26.3046,0,0,1,2.26037-2.78535c.80125-.82746,1.9743-1.48861,1.9743-2.73014a17.14575,17.14575,0,0,0-1.11577-6.89436c-.94428-2.17873-2.68963-4.93647-4.97881-5.98409-.48637-.138-.85836-.46861-1.31609-.63423a6.574,6.574,0,0,1-.85835-.91027,2.94267,2.94267,0,0,0-2.88995-.91027,7.11084,7.11084,0,0,1-5.4079-1.18565c-1.917-1.599-4.46362-2.06831-6.66688-3.11593a31.28915,31.28915,0,0,1-4.86425-2.0683c-.515-.33126-.82971-.93788-1.34473-1.24086a5.64293,5.64293,0,0,0-2.06022-.30364,7.71615,7.71615,0,0,1-3.49071-1.18565,4.68553,4.68553,0,0,0-1.2017-.6625,4.52771,4.52771,0,0,0-2.17461.19323,4.11462,4.11462,0,0,1-4.03454-2.09591c-.48637-.79986-.74379-1.81987-1.545-2.34368a3.90029,3.90029,0,0,0-1.48793-.46928,27.72066,27.72066,0,0,1-3.34767-.74464,1.87162,1.87162,0,0,1-1.23034-1.32367c-.08593-.55141.08592-1.18564-.229-1.68184a2.16389,2.16389,0,0,0-1.23033-.68944c-1.74536-.49688-3.77694-.82746-5.2647-1.87575-1.83128-1.40581-4.20621-1.76466-6.18051-2.8951-1.60232-.91027-3.46206-1.40647-5.00728-2.42716-1.14441-.77225-2.518-1.57211-2.20326-3.28156-.143-.30365.11457-.4686.20032-.68943a7.86233,7.86233,0,0,1,.85853-1.599,10.54767,10.54767,0,0,1,3.23311-3.17181,13.21835,13.21835,0,0,1,3.20481-1.40648,1.58652,1.58652,0,0,1,1.57369.19323c.48637.441.28606,1.02.02864,1.48862a14.7857,14.7857,0,0,0-1.40219,3.88885c-.45773,1.02069-1.28744,1.95789-.25742,3.06072,1.545,1.59971,3.66238,2.06831,5.694,2.75775a11.37517,11.37517,0,0,0,3.60527.49688c1.774.08281,3.51935.35818,5.29334.52381a47.52257,47.52257,0,0,1,10.58685,1.65491,75.48875,75.48875,0,0,1,10.44382,4.49481c5.55093,2.78535,10.9873,5.70872,16.36656,8.797,2.74692,1.57211,5.46519,3.17181,8.15482,4.82606a50.2023,50.2023,0,0,1,6.75263,5.1573,40.335,40.335,0,0,0,6.26626,4.05381,45.49359,45.49359,0,0,0,4.578,1.98549,38.67948,38.67948,0,0,0,5.66532,1.5169l4.83561.16563c9.49954.41339,20.00064-3.9986,27.75466-8.93507a40.533,40.533,0,0,1,6.09458-3.5576c4.6353-1.87575,9.90017-1.37887,14.82153-.44167,8.49815,1.62731,17.1107,2.786,25.72307,3.668,8.49816.82746,17.33948,1.9579,25.89492,1.87576a96.2293,96.2293,0,0,0,10.15759-.68944c3.691-.49688,7.41067-.88267,11.07322-1.65492,1.74535-.35885,3.57663-.44167,5.322-.77225,2.97586-.579,5.9802-.88266,9.01317-1.32366.77243-.0276,1.545-.11042,2.289-.16563.28607,0,.62941-.11041.77261.276.11439.33058-.08592.55141-.34334.744a9.60278,9.60278,0,0,1-3.54816,1.62731,82.77756,82.77756,0,0,1-16.65262,2.42717c-1.28762.08214-2.57524.19255-3.83422.27537-3.033.0276-6.00867.44167-9.01317.57969-.25742.02693-.60077.08214-.68669.303a.45789.45789,0,0,0,.2576.4962,1.21853,1.21853,0,0,0,.6294.11042c8.87014.16562,17.7401-.138,26.5816-.82746.57212-.05521,2.46068-.22016,2.7181.33125.1432.38579-.20014.579-.515.68944-.5723.22083-1.14442.41339-1.68807.60662-1.17324.27537-2.34629.55142-3.51952.77225a27.32481,27.32481,0,0,1-3.97708.24777c-1.631.08348-3.29057.16562-4.92153.24844-.80107.05521-1.60232.11041-2.37493.138-.42909.0276-1.57368-.19323-1.5164.441.05728.41406.45773.276.744.276,2.03141.138,3.97725.441,5.98.55141q3.34785.207,6.69552.4134c4.46363.276,8.89861.52448,13.36223.79985a35.59525,35.59525,0,0,1,10.21487.63423C324.82541,237.00116,325.48346,237.16611,325.5121,237.46976Z"/></svg>