<svg id="Layer_1" data-name="Layer 1" xmlns="http://www.w3.org/2000/svg" xmlns:xlink="http://www.w3.org/1999/xlink" viewBox="0 0 647.03402 390.85106"><defs><style>.cls-1{fill:#fbcc0a;}.cls-2{fill:#fcb017;}.cls-3{fill:#f7901e;}.cls-4{fill:#f17623;}.cls-5{fill:#ec4b25;}.cls-6{fill:#d71f27;}.cls-7{fill:#ed2024;}.cls-8{fill:#e38649;}.cls-9{fill:none;stroke:#231f20;stroke-miterlimit:10;stroke-width:0.38753px;}.cls-10{fill:url(#linear-gradient);}.cls-11{fill:#fff;}.cls-12{fill:#282828;}</style><linearGradient id="linear-gradient" x1="-17.4386" y1="363.00178" x2="612.07006" y2="363.00178" gradientTransform="matrix(1, 0, 0.11311, 1, -26.7716, 0)" gradientUnits="userSpaceOnUse"><stop offset="0" stop-color="#ed2024"/><stop offset="1" stop-color="#f48521"/></linearGradient></defs><path class="cls-1" d="M645.407,227.33953a205.72422,205.72422,0,0,1-4.00115,21.79741c-.80758-.40191-1.65179-.80382-2.47774-1.18744q-10.35168-4.82363-20.70334-9.629a22.8084,22.8084,0,0,1-6.93775-4.31176c-1.762-1.80927-3.12019-4.33048-5.5613-4.97015-2.49612-.63923-4.97386.95013-7.52509,1.24276-5.35944.60309-11.54472-5.42694-14.4262-9.42823a11.65605,11.65605,0,0,1-1.48678-3.70866,69.64818,69.64818,0,0,0-5.74469-14.0326,7.88638,7.88638,0,0,0-1.52341-2.17416,8.584,8.584,0,0,0-3.02845-1.51666c-2.67961-.93184-5.3777-1.8454-8.05742-2.77725a3.2893,3.2893,0,0,0-1.48667-3.3982,19.48038,19.48038,0,0,0-3.57893-1.71738c-2.31262-1.09645-4.23977-2.85042-6.31378-4.33049l92.63246-12.57037A200.94508,200.94508,0,0,1,645.407,227.33953Z"/><path class="cls-2" d="M645.18671,174.62739l-92.63246,12.57037c-.257-.20073-.514-.36534-.77094-.54823a63.84928,63.84928,0,0,0-8.20418-4.14759c-6.42389-3.05115-15.94961-7.65553-18.26222-14.70841-.71584-2.13759-2.25751-4.51248-4.49675-4.29346-.38536-5.737,3.26706-11.96773.3671-16.93744a11.32467,11.32467,0,0,0-2.03726-2.4485l85.41936-65.84947a201.531,201.531,0,0,1,26.68675,45.49555A197.05215,197.05215,0,0,1,645.18671,174.62739Z"/><path class="cls-3" d="M604.56936,78.26466,519.15,144.11413c-.42211-.43849-.881-.85869-1.30318-1.27889-3.76254-3.7274-5.7448-8.16718-8.07568-12.80813a133.34289,133.34289,0,0,0-11.34274-18.56338c-2.91833-4.00173-6.33214-6.28563-8.33278-10.90785-.75246-1.754-1.44992-3.52666-2.074-5.335L520.967,15.01a200.34808,200.34808,0,0,1,45.99506,26.1279A203.38994,203.38994,0,0,1,604.56936,78.26466Z"/><path class="cls-4" d="M520.967,15.01,488.02161,95.22083c-.34873-1.02329-.69746-2.06488-1.00944-3.08817L484.773,87.83919a14.97506,14.97506,0,0,1-2.5696,1.29719c-.4956.03658-3.68917-.47507-3.68917-.47507s-4.9556-.4202-5.7448-.32876a23.018,23.018,0,0,0-3.78092,1.80839s-1.06456,1.49836-3.46893,4.45851a5.8729,5.8729,0,0,1-5.39607,2.37534l-1.8354,3.80011s-5.48782-2.99628-6.44215-3.1243c-.93607-.10974-5.50619-5.09774-5.50619-5.09774l-3.56068-2.26561a28.65549,28.65549,0,0,0-5.48793,1.6081c-1.65179.8404-4.68024,7.92941-4.68024,7.92941l-1.08282,3.3072s-.3121.32875-.71583.78553L416.845,1.83654A204.54428,204.54428,0,0,1,520.967,15.01Z"/><path class="cls-5" d="M430.81231,103.91749a18.211,18.211,0,0,0-1.56005,1.90028c-.71583,1.05987-1.41329,3.81884-1.92725,6.30392-1.21132,5.9194-5.43271,10.81641-6.80926,16.809-.47722-.29218-.97281-.58436-1.46829-.877.18349,4.62312-3.81766,8.27736-5.45119,12.6074a50.23313,50.23313,0,0,0-1.48667,6.212,26.38384,26.38384,0,0,1-3.90941,8.69711L320.06437,42.27049a202.74365,202.74365,0,0,1,45.70144-26.56595A199.95009,199.95009,0,0,1,416.845,1.83654Z"/><path class="cls-6" d="M361.85641,168.34176v.01829a16.06651,16.06651,0,0,1-2.386,3.81884c-.99107.8404-3.01008,5.04287-3.01008,5.04287-5.7998,3.19746-7.32321,5.35333-11.58135,9.95771-3.63405,3.94642-8.97512,6.0113-13.43512,8.80684-7.48846,4.732-13.15977,11.80313-20.09763,17.32106-10.05794,8.00257-22.31838,12.35135-34.35859,16.44408-10.00293,3.38035-21.85964,5.71867-31.422,10.26863A196.31364,196.31364,0,0,1,256.52292,125.4776Z"/><path class="cls-7" d="M408.20019,155.57021a28.45072,28.45072,0,0,1-2.16575,2.74068c-.881.96842-7.74544,7.6011-9.0485,6.88827-1.30317-.71238-2.588-1.4252-3.891-2.13758-2.88159,2.229-7.103,2.02785-10.03968,4.20246a14.81182,14.81182,0,0,0-3.78092,5.06071c-.38536.69454-.77083,1.64468-1.19294,2.6314-3.76265-1.535-7.50682-3.06944-11.251-4.5678,0-.01829,0-.01829-.01838-.01829-1.6519-1.58981-4.12964-3.69082-4.405-3.12431,0,.01829-.22023.45678-.55059,1.096v.01829L256.52292,125.4776a196.58059,196.58059,0,0,1,26.26453-45.76945A201.68831,201.68831,0,0,1,320.06437,42.2522v.01829Z"/><path class="cls-7" d="M378.08137,174.97443c-1.24806,2.90484-2.84495,6.121-5.63468,4.03787-2.074-1.55323-2.91833-4.86043-4.12965-7.05243a12.54955,12.54955,0,0,0-1.48666-1.55324C370.57455,171.90455,374.31872,173.43949,378.08137,174.97443Z"/><rect class="cls-8" x="559.67202" y="189.41681" width="0.03092" height="0.03106" transform="translate(345.75599 740.22086) rotate(-87.47231)"/><line class="cls-9" x1="559.70234" y1="189.44831" x2="559.67134" y2="189.44695"/><line class="cls-9" x1="559.70098" y1="189.47916" x2="559.70234" y2="189.44831"/><line class="cls-9" x1="559.70098" y1="189.47916" x2="559.70234" y2="189.44831"/><line class="cls-9" x1="559.70098" y1="189.47916" x2="559.70234" y2="189.44831"/><line class="cls-9" x1="559.70234" y1="189.44831" x2="559.67134" y2="189.44695"/><polygon class="cls-10" points="623.208 335.152 613.218 390.851 0 390.851 9.99 335.152 623.208 335.152"/><path class="cls-11" d="M32.2427,372.34517l2.83509-18.29888c.38669-2.31831,1.117-2.96249,3.99425-2.96249H54.578c5.84154,0,10.73835.64418,9.66442,7.47351-1.07392,6.614-6.701,7.68883-13.53036,7.68883-.558,0-8.63357-.04307-8.63357-.04307a1.483,1.483,0,0,0-1.71809,1.37448l-.68724,4.76762c-.34362,2.19091-.90167,2.5767-3.65063,2.5767h-.77337C32.28577,374.92187,31.89908,374.53608,32.2427,372.34517Zm18.298-9.19251c3.13565-.08613,5.23953-.64417,5.84154-4.55229.60111-3.95118-1.76116-4.511-5.41268-4.511h-7.0007a1.47513,1.47513,0,0,0-1.675,1.41755l-1.03086,6.6158c-.17226.94383.12829,1.28835,1.24528,1.24529Z"/><path class="cls-11" d="M108.26164,369.76847c-.42975-.9887-.558-1.33321-1.84729-1.33321H91.42427c-1.33142,0-1.58891.34451-2.27615,1.33321l-2.49146,3.60666c-1.03086,1.54674-1.93343,1.54674-3.47927,1.54674-1.80423,0-2.36227-.42885-1.5889-1.54674l14.04535-20.10042c1.33141-1.80512,2.19-2.19091,4.424-2.19091h6.65707c2.234,0,2.96429.42885,3.60846,2.19091l7.51657,19.11352c.77337,2.01866,0,2.53364-3.13564,2.53364-2.66283,0-4.55319-.21533-5.0251-1.50368Zm-3.00645-4.511c.8586,0,1.20222-.558.94473-1.15916l-3.17871-9.10637c-.25749-.77337-.68723-.90257-1.5889-.90257h-.42975a1.82518,1.82518,0,0,0-1.84729.90257l-6.22733,9.10637c-.34362.60111-.21532,1.15916.60111,1.15916Z"/><path class="cls-11" d="M143.13143,372.34517l2.83509-18.29888c.38668-2.31831,1.11609-2.96249,3.99424-2.96249h15.67732c6.78717,0,10.61005,1.28835,9.87975,5.92677-.60111,3.73765-2.92122,4.68148-6.78627,5.541-.73031.1292-1.117.25839-1.20312.90257-.12919.64417.21443.7303.94473.8577,2.792.47371,5.92767.8595,5.541,4.59715l-.34362,3.4362c-.04306.38578-.08613.7303-.12829,1.03-.21533,1.41754-.77337,1.54674-3.65153,1.54674-4.0373,0-4.1665-.47192-3.86594-2.87816.90256-5.84064-.47192-6.614-5.84154-6.70013l-7.12989-.1292c-1.07392,0-1.41754.25839-1.5889,1.24529l-.90257,5.8855c-.34362,2.19091-.90166,2.5767-3.65062,2.5767h-.77337C143.1745,374.92187,142.78781,374.53608,143.13143,372.34517Zm17.86823-10.00894c3.4362-.08613,5.79848-.38579,6.35742-4.12344.558-3.5636-1.54674-4.12344-5.28349-4.12344h-7.216c-1.07392,0-1.50367.38758-1.675,1.24529l-.94473,6.10082c-.08613.85771.21442,1.073,1.28835,1.073C156.01673,362.46542,158.50819,362.42236,160.99966,362.33623Z"/><path class="cls-11" d="M224.81875,369.76847c-.42975-.9887-.558-1.33321-1.84729-1.33321H207.98138c-1.33142,0-1.58891.34451-2.27615,1.33321l-2.49146,3.60666c-1.03086,1.54674-1.93253,1.54674-3.47927,1.54674-1.80423,0-2.36227-.42885-1.5889-1.54674L212.191,353.27471c1.33141-1.80512,2.19-2.19091,4.424-2.19091h6.658c2.23308,0,2.96339.42885,3.60756,2.19091l7.51657,19.11352c.77337,2.01866,0,2.53364-3.13564,2.53364-2.66283,0-4.55229-.21533-5.0251-1.50368Zm-3.00645-4.511c.8586,0,1.20222-.558.94473-1.15916l-3.17871-9.10637c-.25749-.77337-.68724-.90257-1.5889-.90257h-.42975a1.82321,1.82321,0,0,0-1.8464.90257l-6.22822,9.10637c-.34362.60111-.21532,1.15916.60111,1.15916Z"/><path class="cls-11" d="M259.17266,363.1096c1.33142-8.16075,5.92767-12.49951,19.88689-12.45645a65.62449,65.62449,0,0,1,11.59694.9887c1.24529.25838,1.41755.47191,1.204,1.80333-.21532,1.41754-.64417,1.719-1.67593,1.50367a78.14124,78.14124,0,0,0-11.38252-.90256c-7.6027,0-10.69528,2.14785-11.81137,9.02024-1.24619,8.07642,2.53363,9.14944,8.54743,9.14944a50.81459,50.81459,0,0,0,5.66928-.30145,1.61387,1.61387,0,0,0,1.632-1.54494l.51588-3.3088c.17136-.94383,0-1.37448-1.07393-1.45882l-3.60756-.30145c-1.16005-.08613-1.24618-.38579-1.03175-1.719.17225-1.073.34451-1.545,1.50367-1.545h8.97718c2.749,0,3.35007.55805,2.96428,2.87815l-1.03176,6.35563c-.25659,1.76206-.68724,2.792-2.53363,3.1796a75.09727,75.09727,0,0,1-11.25422.90077C261.4497,375.35072,257.75512,372.216,259.17266,363.1096Z"/><path class="cls-11" d="M320.20062,374.92187c-2.87815,0-3.43619-.60111-3.05041-2.92122l2.87816-18.29708c.34451-2.19092.85949-2.61977,3.82288-2.61977h.77337c2.749,0,3.17781.42885,2.83329,2.61977l-2.61976,16.53681c-.1292.90257.17226,1.41755,1.24528,1.41755h14.86268c1.15916,0,1.28835.515,1.11609,1.588-.21352,1.33141-.42885,1.67593-1.588,1.67593Z"/><path class="cls-11" d="M366.53906,372.34517l2.91943-18.6416c.34451-2.19092.85949-2.61977,3.82378-2.61977h.77336c2.749,0,3.17782.42885,2.8333,2.61977l-2.91942,18.6416c-.34452,2.19091-.90257,2.5767-3.65153,2.5767h-.77337C366.58033,374.92187,366.19455,374.53608,366.53906,372.34517Z"/><path class="cls-11" d="M402.184,372.00065l2.792-17.95436c.38758-2.31831,1.11788-2.96249,3.996-2.96249h11.98273c12.58564,0,16.96567,2.53364,15.50686,11.8966-1.46061,9.4509-6.27129,11.94147-19.24272,11.94147H405.23443C402.35627,374.92187,401.79823,374.32076,402.184,372.00065Zm14.90574-.08613c6.614,0,10.35166-1.20222,11.55388-8.97718,1.24529-7.7301-2.14785-8.848-8.76186-8.848h-6.01469a1.47525,1.47525,0,0,0-1.67414,1.41755L409.82978,370.497c-.17046.94562.17226,1.41754,1.24529,1.41754Z"/><path class="cls-11" d="M461.66524,372.34517l2.92122-18.6416c.34451-2.19092.8595-2.61977,3.82378-2.61977h.77337c2.749,0,3.17781.42885,2.83329,2.61977l-2.91942,18.6416c-.34452,2.19091-.90257,2.5767-3.65152,2.5767h-.77337C461.7083,374.92187,461.32252,374.53608,461.66524,372.34517Z"/><path class="cls-11" d="M522.52453,370.54c.558,1.204.81644,1.37448,1.76027,1.37448.98869,0,1.33141-.34272,1.50367-1.50188l2.87815-17.95436c.17226-1.161.9869-1.37448,2.40445-1.37448,1.63286,0,2.19091.21353,2.01865,1.37448L529.998,371.87146c-.34452,2.3201-1.50367,3.05041-3.95118,3.05041h-6.78627c-2.4493,0-3.56539-1.03-4.42489-3.00735l-7.30125-16.40762c-.55984-1.20222-.81643-1.37448-1.76206-1.37448-.9869,0-1.33141.34451-1.50367,1.50367l-2.83509,17.95436c-.17046,1.15916-.77157,1.33142-2.36138,1.33142-1.46061,0-2.19091-.17226-2.01865-1.33142l3.04862-19.415c.34451-2.31831,1.54673-3.09168,3.996-3.09168h6.78627c2.27525,0,3.307.81643,4.08038,2.53364Z"/><path class="cls-11" d="M558.0367,363.1096c1.33142-8.16075,5.92677-12.49951,19.88689-12.45645a65.64631,65.64631,0,0,1,11.59694.9887c1.24529.25838,1.41755.47191,1.20223,1.80333-.21533,1.41754-.64418,1.719-1.67594,1.50367a78.10286,78.10286,0,0,0-11.38162-.90256c-7.6027,0-10.69438,2.14785-11.81227,9.02024-1.24528,8.07642,2.53543,9.14944,8.54833,9.14944a50.86242,50.86242,0,0,0,5.67018-.30145,1.61426,1.61426,0,0,0,1.63107-1.54494l.515-3.3088c.17226-.94383,0-1.37448-1.073-1.45882l-3.60845-.30145c-1.15916-.08613-1.24529-.38579-1.03-1.719.17047-1.073.34273-1.545,1.50368-1.545h8.97718c2.749,0,3.35007.55805,2.96249,2.87815l-1.03,6.35563c-.25838,1.76206-.68724,2.792-2.53543,3.1796a75.07329,75.07329,0,0,1-11.25242.90077C560.312,375.35072,556.61916,372.216,558.0367,363.1096Z"/><path class="cls-12" d="M19.72077,321.82814c-4.698-.94078-5.32459-1.5657-4.54174-6.42161,1.09617-6.73406,3.91512-6.26281,9.86633-5.48082,7.51692.93909,23.33362,2.976,38.21123,2.976,18.009,0,31.47715.15708,33.19909-11.43289,1.56655-9.55131-4.07135-10.17794-23.80316-11.2741l-6.42075-.31417c-32.41709-1.72278-45.41483-5.32373-41.65595-29.12859,3.91512-24.11562,28.50112-25.52594,55.43739-25.52594a378.641,378.641,0,0,1,41.81218,2.66357c4.22843.62492,4.85505,1.56571,4.22843,6.4199-.93909,5.32374-2.50564,6.26453-6.8903,5.63791a346.56636,346.56636,0,0,0-38.52454-2.819c-16.59954,0-27.09164-.15709-28.81443,10.17964-1.40948,9.39593,4.07135,9.23885,25.0564,10.80456l5.32459.31416c27.87535,1.87817,44.63113,3.28849,40.55978,28.18781-3.44557,22.55162-21.61082,28.34489-59.3525,28.34489A289.87452,289.87452,0,0,1,19.72077,321.82814Z"/><path class="cls-12" d="M163.95941,296.77174c-2.19233,14.5643,2.50564,18.949,21.14128,18.949,19.73267,0,24.58686-5.32545,26.623-19.106l4.8542-30.53722c.62662-3.13141,3.13226-4.22757,7.674-4.22757,4.8542,0,6.8903,1.09616,6.26368,4.38465l-4.54089,29.44106c-3.13226,18.79187-10.02256,29.284-47.60716,29.284-36.17512,0-42.28257-9.553-39.15116-29.59813l3.91512-24.74224c1.25324-7.36069,2.819-8.76931,12.372-8.76931h2.50564c9.86548,0,11.432,1.40862,10.17879,8.76931Z"/><path class="cls-12" d="M265.13263,314.77991c-1.09617,7.36069-2.66272,8.61394-12.05866,8.61394H250.4121c-10.02256,0-11.27581-1.56571-10.33587-8.61394L246.8103,273.124c.93908-5.95036,2.34855-8.14269,15.65961-10.335,8.45685-1.41033,22.70784-2.34941,34.7665-2.34941,28.03158,0,37.42837,6.89115,34.76479,23.64778L327.147,314.77991c-1.09617,7.36069-2.66187,8.61394-12.05866,8.61394h-2.50564c-10.17879,0-11.43119-1.56571-10.4921-8.61394l5.01128-31.00676c1.879-12.21489-4.07135-14.25013-15.34716-14.25013a72.70128,72.70128,0,0,0-15.81669,1.5657c-2.50564.46954-4.07134,1.56571-4.54174,4.54174Z"/><path class="cls-12" d="M356.28073,323.39385c-9.86548,0-11.43119-1.25325-10.335-8.61394l6.4199-39.93316c.94079-5.95036,2.66358-10.02256,15.97463-11.90072a282.39289,282.39289,0,0,1,37.27129-2.50649c3.758,0,4.38465.7837,3.758,5.16836-.46954,3.758-1.25325,5.48082-5.01128,5.48082h-1.72279c-7.83023,0-17.85279.78371-21.7679,1.56571a4.66592,4.66592,0,0,0-3.758,4.07219l-6.10744,38.05329c-1.09617,7.36069-2.66187,8.61394-12.05781,8.61394Z"/><path class="cls-12" d="M430.52431,261.85344h-2.51023c-9.56255,0-11.11653,1.40014-12.38014,8.76l-7.03533,44.15886c-1.10988,7.37676.46109,8.62328,10.331,8.62328h2.66386c9.39183,0,10.96291-1.24652,12.0558-8.62328l7.05231-44.15886C441.94819,263.25358,440.37712,261.85344,430.52431,261.85344Z"/><path class="cls-12" d="M452.75512,322.61014c-3.91511-.782-4.38465-1.40862-3.758-5.48082.78371-4.54174,2.19233-5.32374,5.48082-4.85419a231.5978,231.5978,0,0,0,35.86267,2.976c13.93767,0,18.63479-.94079,19.41849-6.42161.78371-5.79328-1.25324-6.577-19.41849-7.67315-29.44106-1.41033-38.837-3.60266-36.17513-20.2022,3.28849-20.35758,19.57558-20.51466,44.78736-20.51466a199.06155,199.06155,0,0,1,31.478,2.34941c3.91511.62662,4.38465,1.09616,3.758,5.16836-.62662,4.38466-2.03525,5.32374-5.48082,4.8542a237.80741,237.80741,0,0,0-30.06768-2.19233c-14.72138,0-19.26142.31246-20.2022,5.79328-.782,5.16836.62662,6.26453,17.6957,6.89115,30.22477,1.40862,40.24733,2.50649,37.273,20.9842-3.13312,19.73266-23.4907,20.82883-46.35477,20.82883A218.85068,218.85068,0,0,1,452.75512,322.61014Z"/><path class="cls-12" d="M546.09811,292.69955c3.28849-20.67175,12.0578-32.41709,51.209-32.41709,25.0564,0,44.632,4.69882,41.02932,28.18951-1.09616,7.83023-2.34941,9.08177-14.5643,9.08177H574.75546c-2.03525,0-3.91512.47125-4.38466,3.44558-1.87816,12.84151,10.02256,13.46813,26.62211,13.46813a255.74448,255.74448,0,0,0,26.30964-1.87987c3.60266-.46954,4.8542,0,4.0722,4.54174-.62662,4.22928-1.25324,4.85591-5.48082,5.48082a203.86933,203.86933,0,0,1-31.478,2.19233C551.89139,324.80247,542.49545,315.25116,546.09811,292.69955Zm62.1706-4.22758c2.34942,0,3.758-.62662,4.38466-3.75974,1.87987-11.11872-2.50479-15.65875-16.912-15.65875-13.7823,0-20.04512,3.91511-21.925,15.65875-.62663,3.13312.7837,3.75974,3.13141,3.75974Z"/><path class="cls-12" d="M541.97969,223.50691a.28183.28183,0,0,1-.05131.18189c-.108.15736-.36462.16255-.56138.19157a83.41958,83.41958,0,0,1-19.87781.138,48.916,48.916,0,0,1-5.34813-.63039,2.32283,2.32283,0,0,0-.577.03232c-.176.0151-.34917.06158-.381.25763-.02784.24371.15465.30882.35459.389a24.79493,24.79493,0,0,0,4.53727.87834q2.48145.42643,4.95026.92269,4.93668.993,9.81192,2.26416c.50393.1314,1.06766.201,1.555.368.36592.12527,1.13975.07077,1.21748.56833.12.76864-1.38191.57306-1.79891.51172-3.2575-.47987-6.47325-.97483-9.71177-1.58116q-5.04462-.94486-10.08948-1.8895l-2.32054-.43457a1.62521,1.62521,0,0,0-.75224-.02147.557.557,0,0,0-.42879.55064c.03928.31354.39989.46076.704.54593q7.02229,1.96937,14.04449,3.9385a1.04961,1.04961,0,0,1,.7454.47632.70661.70661,0,0,1-.4433.85947,1.90808,1.90808,0,0,1-1.06165.021c-.924-.16774-1.83289-.40838-2.74072-.64855q-2.51117-.6646-5.02233-1.32943a16.27486,16.27486,0,0,0-4.6255-.77619c-.46642.00708-.63169.14982-.32345.55891a5.64992,5.64992,0,0,1,1.82592.65162c.16928.09861.36651.14627.35613.40484a.52678.52678,0,0,1-.42773.47067,3.40134,3.40134,0,0,1-1.93068.017,10.33874,10.33874,0,0,1-2.51246-.77147,2.30246,2.30246,0,0,0-.99111-.30316c-.7.058-1.25877-.12173-1.85766.40084-.51679.45084-.70352.90523-1.50719.91467a6.40156,6.40156,0,0,1-1.74194-.37111,8.76078,8.76078,0,0,0-4.63659.01062,4.51006,4.51006,0,0,1-1.91169.336,22.63713,22.63713,0,0,1-2.60742-.46476c-.19322.00023-.3691.01486-.56232.01509a7.59923,7.59923,0,0,1-3.23037-.61552,3.23261,3.23261,0,0,0-2.63762-.42419,17.176,17.176,0,0,1-2.31559.85758,7.61231,7.61231,0,0,1-2.41726-.15406,17.29616,17.29616,0,0,0-4.39006-.08351c-.71968.07809-1.44715.32463-2.16129.37511-.54557.0387-1.08418-.15594-1.63317-.15594a3.03465,3.03465,0,0,0-1.8093.3888c-.44082.27579-.77666.69739-1.2209.96752-1.64238.99819-2.13463-1.965-3.61375-1.07675a1.88461,1.88461,0,0,0-.74787,1.19,7.64558,7.64558,0,0,1-.38184,1.38747c-.58214,1.22585-1.73711.75519-2.52662.03161a1.30356,1.30356,0,0,0-1.349-.419c-.42183.20077-.54262.72782-.69066,1.17089a4.97314,4.97314,0,0,1-3.39281,2.9889c-1.41412.4735-2.92462.65681-4.28554,1.26668a7.47614,7.47614,0,0,0-3.29773,2.93252,3.40972,3.40972,0,0,0-.49815,1.92088,1.34811,1.34811,0,0,1-1.28555,1.29546c-.15406.02807-1.27292-.02242-1.01718.45415a2.87209,2.87209,0,0,0,1.07333,1.08548c1.68083,1.03476,3.11819,2.42765,4.82852,3.42749a15.28372,15.28372,0,0,0,4.74229,1.82415,3.05876,3.05876,0,0,1,1.29793.68819c.20041.18308.28074.29538.25821.36049-.14721.427-3.87751-.63086-3.95784-.37535-.05591.17788,1.67989.91538,3.00177,1.41884.00023,0,1.63471.6226,5.57651,2.57651.21221.10522.63333.33714.72192.72782a.788.788,0,0,1-.36993.80191,1.2927,1.2927,0,0,1-.90842.14485,3.85014,3.85014,0,0,1-.8873-.306c-1.048-.46028-2.092-.92953-3.12044-1.41978-1.30418-.6219-2.60117-1.25818-3.91137-1.86757a11.06287,11.06287,0,0,0-3.61858-1.19235c-.10511.24347,6.25231,2.85018,6.01108,3.58768-.18579.5681-4.19943-.23923-4.90083-.38031a27.4895,27.4895,0,0,1-4.11355-1.118c-3.72381-1.33013-4.35821-2.585-7.31515-3.50865-1.86862-.58367-3.83563-.612-5.70013-1.148-.31991-.16609-.71556-.08469-1.02485-.31661-1.282-.31094-2.5856-.49119-3.85439-.83587-2.788-.60349-5.57875-1.23883-8.36288-1.79419-3.19334-.637-6.402-1.30018-9.58968-1.852a15.72854,15.72854,0,0,1-7.98163-3.94274,15.53956,15.53956,0,0,0-1.96854-1.73074,4.28674,4.28674,0,0,0-2.93122-.52469,7.65892,7.65892,0,0,0-3.04282.74292,7.455,7.455,0,0,0-2.10939,1.53374,3.445,3.445,0,0,1-.13129-3.16963,10.1002,10.1002,0,0,0,1.90013-.19157c.61823-.11607.99925-.3737,1.04148-1.02107a3.58439,3.58439,0,0,0-1.61655-.2673c-.581-.01557-.9464-.339-.62271-.89792.74657-1.28909,1.22514-2.6933,2.05382-3.951a17.55836,17.55836,0,0,1,1.73451-2.22168c.60986-.66342,1.506-1.18221,1.50106-2.17733a14.16115,14.16115,0,0,0-.85935-5.48451c-.71909-1.72648-2.063-3.91113-3.8157-4.75125-.36391-.11418-.644-.38078-.993-.51219a4.76139,4.76139,0,0,1-.67214-.71673,2.1569,2.1569,0,0,0-2.20317-.73278,5.2485,5.2485,0,0,1-4.15284-.93991c-1.47451-1.261-3.407-1.64627-5.10242-2.47035a23.94438,23.94438,0,0,1-3.72428-1.65052c-.39989-.27155-.6436-.7474-1.03535-.98333a3.88283,3.88283,0,0,0-1.59094-.239,5.98813,5.98813,0,0,1-2.676-.95737,2.29462,2.29462,0,0,0-2.58619-.36851,3.09332,3.09332,0,0,1-3.08186-1.65713c-.36993-.64879-.56279-1.45328-1.18162-1.87087a2.88033,2.88033,0,0,0-1.13479-.36851,17.70772,17.70772,0,0,1-2.57-.60042,1.40169,1.40169,0,0,1-.94653-1.05057c-.078-.44282.06016-.93873-.17387-1.32282a1.56234,1.56234,0,0,0-.95254-.56126,12.761,12.761,0,0,1-4.02025-1.49693c-1.41317-1.1053-3.22565-1.404-4.74936-2.29057-1.23565-.71768-2.65366-1.114-3.83351-1.93269-.8892-.61811-1.9236-1.23953-1.70042-2.61095-.10027-.2331.09826-.36262.1635-.545a6.81668,6.81668,0,0,1,.66554-1.27964,7.966,7.966,0,0,1,2.46244-2.50952,10.29541,10.29541,0,0,1,2.4661-1.1244,1.16727,1.16727,0,0,1,1.20463.15618.90287.90287,0,0,1,.018,1.17419,12.5025,12.5025,0,0,0-1.07628,3.10167c-.33536.801-.9812,1.54742-.19853,2.4319,1.18528,1.26926,2.81138,1.64816,4.37083,2.19337a8.43647,8.43647,0,0,0,2.77056.39565c1.358.063,2.69743.289,4.06059.41616a35.03868,35.03868,0,0,1,8.09275,1.31669,55.16015,55.16015,0,0,1,8.01737,3.574q6.3662,3.31164,12.5347,6.9852,3.15276,1.87737,6.2496,3.84673a39.41133,39.41133,0,0,1,5.174,4.10293,28.60028,28.60028,0,0,0,8.32477,4.793,28.64228,28.64228,0,0,0,4.33674,1.21405l3.71532.139c7.27043.31614,15.32649-3.188,21.25359-7.10576a30.14885,30.14885,0,0,1,4.686-2.83343c3.53683-1.50307,7.57772-1.10507,11.34636-.35271,6.523,1.30229,13.11837,2.21933,19.733,2.90586,6.51218.67616,13.28045,1.57573,19.833,1.4941a64.58647,64.58647,0,0,0,7.79088-.5497c2.83414-.3829,5.67513-.68559,8.47306-1.30677,1.34452-.28972,2.74095-.34256,4.08677-.61671,2.281-.44872,4.59425-.70753,6.90075-1.04608.593-.0335,1.18457-.08328,1.76034-.13164.22519-.00284.49166-.08918.597.20784.08682.26636-.07561.44094-.25539.6009a7.18732,7.18732,0,0,1-2.72585,1.29168,60.78749,60.78749,0,0,1-12.769,1.92466c-.97672.06606-1.968.1491-2.94479.21516-2.31251.0276-4.60262.35483-6.90735.47963-.19865.01062-.44047.0519-.50735.239a.35049.35049,0,0,0,.1918.398,1.01915,1.01915,0,0,0,.46937.08352c6.80131.1182,13.59872-.12386,20.37844-.67.43315-.03492,1.88172-.16279,2.09322.26022.10676.31307-.15441.46406-.40342.56527-.437.16562-.87528.315-1.2977.46312-.88424.22719-1.7975.45156-2.68492.63345a21.53062,21.53062,0,0,1-3.0611.18968q-1.88126.10369-3.76273.20714-.91533.05061-1.83053.10074c-.31272.01746-1.2071-.15641-1.1447.35153.04282.31826.33985.2128.56645.226,1.54211.08989,3.0368.33454,4.57844.43151q2.5623.161,5.12448.32227,5.12443.32238,10.249.64454a26.12573,26.12573,0,0,1,7.82273.49025C541.46231,223.13368,541.94891,223.26225,541.97969,223.50691Z"/></svg>